<svg width="99" height="29" viewBox="0 0 99 29" fill="none" xmlns="http://www.w3.org/2000/svg">
<path d="M7.584 23.336C6.208 23.336 4.88 23.168 3.6 22.832C2.336 22.48 1.304 22.032 0.504 21.488L2.064 17.984C2.816 18.464 3.68 18.864 4.656 19.184C5.648 19.488 6.632 19.64 7.608 19.64C8.264 19.64 8.792 19.584 9.192 19.472C9.592 19.344 9.88 19.184 10.056 18.992C10.248 18.784 10.344 18.544 10.344 18.272C10.344 17.888 10.168 17.584 9.816 17.36C9.464 17.136 9.008 16.952 8.448 16.808C7.888 16.664 7.264 16.52 6.576 16.376C5.904 16.232 5.224 16.048 4.536 15.824C3.864 15.6 3.248 15.312 2.688 14.96C2.128 14.592 1.672 14.12 1.32 13.544C0.968 12.952 0.792 12.208 0.792 11.312C0.792 10.304 1.064 9.392 1.608 8.576C2.168 7.76 3 7.104 4.104 6.608C5.208 6.112 6.584 5.864 8.232 5.864C9.336 5.864 10.416 5.992 11.472 6.248C12.544 6.488 13.496 6.848 14.328 7.328L12.864 10.856C12.064 10.424 11.272 10.104 10.488 9.896C9.704 9.672 8.944 9.56 8.208 9.56C7.552 9.56 7.024 9.632 6.624 9.776C6.224 9.904 5.936 10.08 5.76 10.304C5.584 10.528 5.496 10.784 5.496 11.072C5.496 11.44 5.664 11.736 6 11.96C6.352 12.168 6.808 12.344 7.368 12.488C7.944 12.616 8.568 12.752 9.24 12.896C9.928 13.04 10.608 13.224 11.28 13.448C11.968 13.656 12.592 13.944 13.152 14.312C13.712 14.664 14.16 15.136 14.496 15.728C14.848 16.304 15.024 17.032 15.024 17.912C15.024 18.888 14.744 19.792 14.184 20.624C13.64 21.44 12.816 22.096 11.712 22.592C10.624 23.088 9.248 23.336 7.584 23.336ZM16.9791 23V6.2H21.7311V23H16.9791ZM24.8719 23V6.2H28.7839L38.0479 17.384H36.1999V6.2H40.8559V23H36.9439L27.6799 11.816H29.5279V23H24.8719ZM41.9518 23L49.3678 6.2H54.0478L61.4878 23H56.5438L50.7358 8.528H52.6078L46.7998 23H41.9518ZM46.0078 19.736L47.2318 16.232H55.4398L56.6638 19.736H46.0078ZM65.8095 23L60.3615 6.2H65.2575L69.8415 20.744H67.3695L72.1935 6.2H76.5615L81.1215 20.744H78.7455L83.4735 6.2H88.0095L82.5615 23H77.4735L73.5855 10.64H74.9535L70.8975 23H65.8095Z" fill="#232323"/>
<circle cx="96" cy="20" r="3" fill="#079011"/>
</svg>
