<svg width="500" height="375" viewBox="0 0 500 375" fill="none" xmlns="http://www.w3.org/2000/svg">
<g clip-path="url(#clip0_2_144)">
<circle cx="245" cy="184" r="188" fill="#EAF5EB"/>
<path fill-rule="evenodd" clip-rule="evenodd" d="M280.764 163.805C285.208 167.026 284.5 173.365 283.163 177.97C281.193 184.75 277.269 191.027 272.794 196.438C264.854 206.036 251.375 216.814 238.95 208.388C227.886 200.883 220.906 185.74 218.497 172.984C217.753 169.042 216.761 163.169 220.259 160.205C225.431 155.825 234.555 156.622 240.798 157.186C244.91 157.557 248.877 158.818 252.941 158.226C262.382 156.85 272.889 158.096 280.764 163.805Z" fill="#079011"/>
<path fill-rule="evenodd" clip-rule="evenodd" d="M89.3443 214.035C98.3458 225.453 113.649 227.257 127.241 227.145C135.403 227.078 143.581 226.463 151.582 224.8C155.896 223.903 160.181 222.715 164.349 221.288C167.102 220.345 171.201 219.874 172.373 216.924C175.463 209.14 173.189 199.379 171.917 191.479C171.269 187.461 170.783 183.418 170.154 179.396C169.751 176.824 169.558 173.976 168.48 171.569C167.217 168.749 165.622 169.312 162.952 170.091C159.273 171.166 155.495 171.612 151.713 172.19C142.481 173.599 134.426 176.442 126.037 180.471C117.74 184.455 109.693 188.387 102.293 193.926C98.5443 196.734 95.3137 199.781 92.3041 203.358C89.9791 206.122 86.5089 210.437 89.3443 214.035ZM128.692 264.752C128.764 265.981 142.872 262.27 144.728 261.853C156.909 259.121 169.332 256.009 180.831 251.073C191.565 246.465 201.023 241.194 209.47 233.008C213.407 229.192 216.948 225.174 220.337 220.894C222.035 218.75 224.355 218.999 226.249 217.184C227.953 215.551 229.259 214.276 228.727 211.834C224.47 212.955 216.61 220.006 212.197 216.446C209.681 214.417 213.17 212.297 214.78 211.121C217.808 208.909 220.397 206.181 222.803 203.318C218.671 204.119 214.825 205.667 211.229 207.821C209.631 208.778 204.155 212.248 202.88 208.94C202.095 206.903 205.808 204.344 206.966 203.217C209.809 200.451 212.878 197.222 214.388 193.503C210.656 192.637 207.138 195.521 204.597 197.87C201.776 200.478 198.318 203.216 195.952 206.221C194.732 207.771 194.466 209.602 193.513 211.274C192.44 213.155 190.725 214.767 189.085 216.159C185.925 218.841 182.23 220.815 178.437 222.449C169.769 226.18 160.479 228.821 151.24 230.674C146.708 231.583 142.287 232.002 137.687 232.156C134.111 232.276 132.529 233.345 131.164 236.639C127.47 245.553 128.141 255.359 128.692 264.752ZM234.787 196.832C236.854 198.766 239.54 199.979 241.7 201.839C243.602 203.475 245.795 205.221 247.917 206.544C250.182 207.956 251.875 206.966 253.915 205.688C256.309 204.189 259.062 203.581 261.528 202.24C270.055 197.599 280.487 186.227 278.895 175.786C278.22 171.36 275.932 167.006 271.778 164.998C268.004 163.175 262.519 162.163 258.482 163.687C256.205 164.547 254.576 166.445 253.117 168.311C251.416 170.486 250.764 170.143 249.032 168.045C245.932 164.292 240.819 160.999 235.765 161.078C233.253 161.118 230.758 161.648 228.496 162.69C228.189 162.832 228.018 163.26 227.71 163.404C227.333 163.582 226.712 163.212 226.449 163.378C225.786 163.798 225.125 165.108 224.743 165.773C223.21 168.44 220.449 173.672 223.231 175.918C223.233 175.919 223.107 178.957 223.145 179.303C223.342 181.116 223.968 182.612 224.775 184.269C227.199 189.249 230.778 193.082 234.787 196.832ZM230.665 238.961C232.623 239.569 234.732 233.433 232.854 232.453C231.063 231.519 228.892 238.41 230.665 238.961ZM261.421 231.623C262.099 233.942 262.386 236.572 264.044 238.459C265.562 236.657 265.712 233.332 264.24 231.48C263.399 230.423 260.679 229.091 261.421 231.623ZM198.757 191.008C198.768 191.067 196.401 192.199 197.556 193.437C199.134 195.128 198.917 191.836 198.757 191.008ZM188.974 172.115C189.001 174.459 193.963 173.893 193.928 171.536C193.885 168.634 188.945 169.631 188.974 172.115ZM194.897 152.526C194.406 150.38 185.775 147.395 186.01 151.135C186.128 153.01 195.939 157.088 194.897 152.526ZM283.376 225.301C284.344 226.465 285.718 226.923 286.878 227.816C288.094 228.752 288.963 229.965 290.025 231.064C292.942 234.08 296.453 236.558 299.6 239.328C305.385 244.421 310.927 249.895 317.341 254.215C328.804 261.932 342.096 266.153 355.292 269.849C356.385 270.155 359.534 271.391 360.615 270.47C361.782 269.478 361.189 265.984 361.135 264.663C360.916 259.248 360.285 253.769 360.353 248.361C360.381 246.14 361.032 242.983 359.873 240.951C358.579 238.681 354.966 238.017 352.732 237.163C345.939 234.567 339.397 230.188 333.396 226.132C326.021 221.146 318.572 216.077 310.982 211.422C303.546 206.862 295.343 203.809 287.048 201.204C286.664 202.012 290.622 204.61 291.074 204.975C293.244 206.722 295.605 208.533 297.216 210.839C298.357 212.471 299.526 216.166 296.377 216.261C294.851 216.307 292.594 214.83 291.21 214.352C288.924 213.564 286.568 213.01 284.176 212.649C286.232 214.913 293.201 218.979 291.933 222.744C290.703 226.398 283.587 222.134 281.138 222.134C281.539 223.408 282.549 224.307 283.376 225.301ZM367.441 235.498C371.998 237.101 376.669 238.012 381.372 239.046C385.855 240.033 389.998 240.776 394.59 240.198C400.93 239.401 407.945 236.775 408.749 229.572C409.702 221.037 403.674 213.193 398.498 207.07C392.199 199.62 385.126 192.959 377.46 186.928C369.802 180.903 361.537 175.591 352.879 171.107C346.291 167.695 338.851 165.624 331.886 163.064C330.561 162.577 326.896 160.865 325.656 162.284C324.655 163.43 326.018 165.341 326.475 166.406C327.365 168.483 327.488 170.573 327.718 172.802C328.745 182.757 329.981 192.709 330.55 202.707C330.708 205.493 330.987 208.408 330.824 211.196C330.735 212.741 329.931 214.708 330.466 216.215C331.495 219.114 336.206 221.033 338.703 222.327C343.173 224.645 347.907 226.374 352.423 228.592C357.382 231.026 362.211 233.658 367.441 235.498ZM304.242 170.813C302.991 170.641 301.117 170.301 300.002 171.111C298.548 172.168 298.929 173.638 300.272 174.404C301.333 175.01 303.815 175.176 304.863 174.626C306.648 173.69 306.346 171.103 304.242 170.813ZM297.314 193.865C298.325 195.548 302.019 196.652 301.697 193.511C301.421 190.821 295.453 190.765 297.314 193.865ZM298.685 146.438C297.061 147.068 294.112 147.607 293.63 149.697C293.181 151.642 295.025 151.514 296.355 150.978C297.449 150.539 302.324 146.405 298.685 146.438ZM44.0984 220.652C45.0473 216.959 44.3246 212.87 44.8483 209.087C45.3564 205.421 46.2706 202.051 47.5824 198.595C50.4873 190.945 53.8151 184.058 58.5236 177.344C67.3914 164.7 77.6799 153.563 90.1035 144.327C102.369 135.21 115.95 127.8 130.337 122.607C145.593 117.1 160.95 115.184 177.038 114.128C181.843 113.813 186.643 113.439 191.42 112.832C194.912 112.389 199.289 111.843 202.741 112.912C204.91 113.584 206.121 115.476 203.759 116.717C202.084 117.597 199.891 117.702 198.041 117.936C200.275 125.036 203.912 132.16 209.674 137.049C215.3 141.822 222.828 143.458 229.928 144.668C233.779 145.324 238.09 145.832 242 145.549C244.472 145.371 246.4 144.226 247.398 146.772C248.09 148.541 248.417 150.482 249.33 147.811C250.409 144.653 250.939 144.674 254.296 143.777C261.162 141.942 269.032 140.269 275.022 136.303C281.236 132.187 283.398 125.53 286.867 119.331C287.725 117.798 290.312 114.697 288.99 112.942C287.781 111.336 283.848 111.496 282.048 111.329C280.147 111.152 278.235 111.144 276.329 111.07C275.224 111.028 273.002 111.481 273.446 109.831C274.117 107.344 281.3 107.663 283.084 107.622C286.402 107.548 289.765 107.624 293.066 107.989C309.432 109.799 325.945 113.146 341.782 117.609C372.508 126.267 402.267 142.221 424.691 165.206C446.216 187.268 453.035 223.983 439.802 252.153C432.926 266.794 418.002 272.808 403.535 277.665C395.904 280.227 387.824 282.231 379.712 281.748C375.82 281.516 372.126 280.468 368.33 279.678C366.674 279.333 364.79 278.784 363.089 278.923C361.802 279.028 360.565 280.209 359.358 279.582C358.501 279.136 358.128 277.857 357.081 277.311C355.823 276.658 354.299 276.422 352.94 276.092C349.165 275.175 345.51 273.688 341.82 272.468C338.004 271.207 334.403 269.583 330.742 267.941C328.893 267.112 324.615 263.741 323.411 266.205C322.862 267.33 323.095 269.5 322.962 270.68C322.727 272.743 322.452 274.802 322.151 276.857C321.488 281.381 320.694 285.885 319.88 290.385C318.412 298.503 316.52 306.274 313.355 313.911C310.829 320.008 308.611 326.919 303.92 331.77C301.872 333.887 299.078 334.84 296.141 334.174C292.799 333.417 291.136 330.382 289.108 327.929C284.646 322.529 277.278 318.391 270.475 316.902C262.144 315.078 254.029 317.746 246.077 320.013C237.666 322.412 229.103 324.697 220.847 327.58C213.154 330.267 204.847 334.235 196.503 333.89C189.227 333.589 182.431 327.667 177.184 323.153C171.913 318.62 165.324 311.982 157.746 312.516C153.983 312.781 150.554 314.596 146.888 315.334C142.864 316.144 138.583 316.259 134.491 316.561C129.412 316.936 118.048 315.612 116.169 309.501C115.891 308.595 115.889 306.728 117.086 306.365C118.187 306.032 118.75 307.319 119.793 307.261C121.915 307.141 123.574 303.44 124.74 302.008C129.445 296.224 135.9 291.91 141.181 286.684C147.143 280.785 152.233 273.637 156.726 266.588C154.695 266.06 152.504 266.936 150.538 267.353C148.149 267.859 145.822 268.47 143.468 269.118C140.874 269.833 138.243 270.324 135.61 270.868C133.645 271.274 131.038 271.396 129.265 272.381C127.717 273.242 126.853 274.166 124.931 274.415C122.977 274.669 120.971 274.455 119.008 274.442C113.698 274.406 108.399 274.307 103.114 273.746C84.4408 271.762 64.6463 263.864 53.4175 248.188C50.3634 243.924 47.903 239.201 46.3482 234.189C45.1347 230.276 43.0423 224.761 44.0984 220.652Z" fill="#232323"/>
<path fill-rule="evenodd" clip-rule="evenodd" d="M219.244 40.0431C214.336 40.1126 209.737 41.5678 205.164 43.2221C201.143 44.6767 196.856 46.0225 193.604 48.926C187.756 54.1489 186.233 62.7967 185.275 70.1954C184.082 79.4279 188.054 87.1739 191.398 95.5265C194.525 103.339 200.265 109.667 207.087 114.489C210.661 117.015 214.612 118.54 218.745 119.877C222.943 121.235 227.009 123.054 231.5 123.047C238.322 123.037 247.054 119.797 249.96 113.077C251.283 110.017 249.995 109.468 247.347 111.131C243.507 113.543 239.805 116.147 235.318 117.217C226.614 119.294 216.191 116.077 208.559 111.833C200.93 107.59 195.809 101.217 192.386 93.2801C188.933 85.2736 187.591 77.384 188.923 68.7524C190.051 61.4376 192.297 54.7561 198.888 50.7852C213.118 42.2144 232.29 42.9049 244.945 54.0435C246.681 55.5705 248.396 57.0564 250.184 58.5145C251.321 59.4412 252.66 60.5531 252.495 62.1559C252.354 63.5284 249.427 68.8201 252.951 67.1947C255.808 65.8767 257.36 63.3003 260.82 62.9813C264.503 62.6416 268.897 65.4709 269.998 69.0319C271.049 72.4297 269.175 77.0784 266.24 79.0273C264.422 80.2342 262.422 80.0478 260.358 79.9992C259.334 79.9749 256.482 79.6421 255.804 80.7251C254.605 82.6404 258.837 84.6536 260.202 85.0774C263.525 86.1083 267.453 84.895 269.363 81.9285C271.305 78.9127 272.635 75.4223 272.902 71.8295C273.158 68.3871 272.377 64.9019 270.346 62.0755C268.186 59.0696 263.783 55.6996 259.835 56.7438C258.122 57.197 256.746 58.9671 255.065 59.3034C254.003 59.5153 254.45 59.6669 253.571 58.8803C253.013 58.3813 252.485 57.4604 251.97 56.8688C249.007 53.4676 246.078 49.8377 242.452 47.1154C235.951 42.234 227.31 39.9285 219.244 40.0431ZM237.222 107.477C236.453 105.674 235.041 108.89 234.623 109.427C233.797 110.491 231.852 111.318 231.936 112.887C232.075 115.477 235.605 114.997 236.782 113.646C238.121 112.108 237.981 109.257 237.222 107.477ZM212.144 95.2148C210.239 98.1825 212.56 101.386 214.066 104.013C215.505 106.524 216.842 109.363 218.518 111.724C221.3 115.644 227.353 111.403 227.533 107.375C227.67 104.29 225.486 105.633 224.084 106.785C222.64 107.971 221.956 108.267 220.443 106.971C217.4 104.363 216.032 100.002 213.928 96.7007C213.511 96.0461 212.755 95.6524 212.144 95.2148ZM206.715 96.1691C206.224 97.6043 207.254 101.407 204.39 101.027C202.808 100.817 202.47 98.5463 201.638 97.5552C198.84 94.2236 199.698 100.525 200.429 102.102C202.041 105.578 206.55 107.973 208.787 103.563C209.619 101.923 209.615 99.8525 209.193 98.0892C208.963 97.1288 207.621 93.5188 206.715 96.1691ZM232.252 89.3719C232.506 91.0465 234.08 94.3827 232.158 95.5806C230.467 96.6351 227.523 94.3452 226.22 93.3891C224.868 92.3955 221.801 89.5452 221.681 93.0922C221.62 94.9003 223.43 97.0696 224.721 98.1112C227.477 100.333 233.202 102.325 235.232 98.144C236.339 95.8664 235.733 92.6238 235.002 90.3286C234.409 88.4685 231.64 85.3273 232.252 89.3719ZM196.113 80.204C194.992 81.5062 192.334 84.4235 193.779 86.2779C195.469 88.4454 198.214 84.4686 199.296 83.3617C200.272 82.3646 202.323 79.5253 201.448 78.0192C200 75.5271 197.098 79.0608 196.113 80.204ZM213.738 74.5972C210.073 76.9849 214.891 78.7043 216.979 78.918C219.506 79.1757 222.736 79.3467 225.057 78.1069C228.347 76.3494 227.25 73.6947 224.062 73.0592C220.792 72.4081 216.582 72.7438 213.738 74.5972ZM261.387 66.9959C258.691 67.5204 255.613 68.2029 254.695 71.1414C253.747 74.1783 255.109 75.1862 257.862 74.5025C260.409 73.8698 264.214 73.233 265.654 70.7448C267.375 67.7722 263.886 66.5102 261.387 66.9959Z" fill="#232323"/>
<path fill-rule="evenodd" clip-rule="evenodd" d="M409.694 132.251C410.599 135.172 415.177 137.11 417.46 138.885C425.445 145.098 433.249 151.566 440.468 158.656C444.215 162.336 447.051 166.787 450.301 170.88C451.093 171.879 452.498 174.117 454.053 173.906C455.759 173.677 456.104 170.738 456.049 169.455C455.863 165.079 451.867 160.853 449.016 157.84C445.81 154.452 442.383 151.15 438.882 148.065C435.028 144.669 430.846 141.749 426.584 138.891C422.398 136.084 418.386 132.842 414.033 130.3C411.983 129.103 408.578 128.647 409.694 132.251ZM130.556 104.51C127.222 104.615 123.97 105.708 120.826 106.723C113.911 108.956 107.326 112.054 100.831 115.291C89.4459 120.966 78.4893 127.833 68.446 135.64C66.3465 137.271 64.1942 138.593 61.9113 139.927C60.4501 140.782 58.3668 141.825 57.8039 143.567C56.3741 147.994 63.5913 143.55 64.6155 142.915L66.0562 142.021C87.4251 128.777 108.769 115.91 132.941 108.315C134.228 107.91 134.629 106.761 133.953 105.623C133.221 104.389 131.794 104.471 130.556 104.51ZM410.667 113.777C410.821 115.125 412.348 115.432 413.378 115.864C417.221 117.478 421.16 118.855 424.992 120.496C432.105 123.541 438.637 127.961 446.062 130.272C447.758 130.801 448.009 129.089 447.554 127.924C447.048 126.623 445.529 125.71 444.43 124.958C441.26 122.786 437.664 121.225 434.144 119.716C430.654 118.22 427.06 117.088 423.481 115.833C420.155 114.667 416.295 112.496 412.723 112.336L412.567 112.328C411.431 112.271 410.487 112.194 410.667 113.777ZM124.489 93.2957C127.887 92.3398 124.676 90.1885 122.657 90.3396C120.404 90.5084 118.226 91.5721 116.089 92.2137C109.557 94.1752 103.502 96.3202 97.3992 99.3647C96.489 99.8193 92.4795 101.974 95.1317 102.928C96.9699 103.589 101.263 100.753 102.841 100.073C109.776 97.0822 117.228 95.3375 124.489 93.2957Z" fill="#232323"/>
<path fill-rule="evenodd" clip-rule="evenodd" d="M259.957 100.259C259.532 99.0131 254.278 85.3891 256.335 84.9783C258.513 84.5426 261.425 92.4472 262.056 93.8753C264.39 99.1498 265.772 104.809 266.855 110.467C267.609 114.406 268.271 118.442 268.007 122.469C267.804 125.564 266.526 126.033 264.419 127.93C264.419 118.528 262.991 109.158 259.957 100.259Z" fill="#232323"/>
<path fill-rule="evenodd" clip-rule="evenodd" d="M310.353 40.0467C318.134 35.6811 326.759 33.4711 334.227 40.016C341.014 45.9641 341.783 56.1996 338.838 64.2413C335.654 72.9398 328.461 80.1086 319.084 81.552C309.213 83.0713 300.862 76.2992 299.369 66.6411C297.703 55.8637 303.24 47.5054 310.353 40.0467ZM303.295 40.4578C296.387 48.4025 293.882 60.3265 297.725 70.1869C301.686 80.3517 311.581 86.7704 322.52 84.809C344.629 80.8458 351.877 49.5821 334.109 36.063C329.597 32.6304 324.245 31.5682 318.659 32.0873C312.492 32.6598 307.794 36.566 303.295 40.4578Z" fill="#232323"/>
<path fill-rule="evenodd" clip-rule="evenodd" d="M390.576 51.3604C386.493 54.1901 382.277 56.8353 378.214 59.6811C374.366 62.3757 370.909 64.6962 366.274 65.8537C369.552 60.7196 372.902 55.6478 376.329 50.6103C378.028 48.112 379.693 45.5826 381.437 43.1152C382.785 41.2058 384.071 39.6698 383.12 37.225C382.013 34.3792 380.157 36.5478 379.301 38.2485C378.119 40.5938 376.523 42.7906 375.164 45.0645C372.129 50.1396 368.97 55.1232 365.784 60.1038C364.793 61.652 358.332 69.7814 363.337 69.9682C365.479 70.0487 368.662 68.3693 370.801 67.9101C373.546 67.3208 375.931 65.977 378.36 64.5946C383.423 61.7131 388.202 58.1712 393.222 55.132C395.786 53.5801 398.349 52.0286 400.912 50.4771C402.414 49.5676 402.901 49.1117 401.986 47.352C401.321 46.0731 400.081 45.2876 398.956 44.4624C396.097 42.3647 393.182 40.3393 390.276 38.3099C389.168 37.535 384.966 33.5541 383.669 33.8375C380.727 34.4804 387.472 39.1953 388.257 39.8076C391.221 42.1162 394.273 44.3144 397.009 46.8901C394.881 48.4074 392.752 49.9135 390.576 51.3604Z" fill="#232323"/>
</g>
<defs>
<clipPath id="clip0_2_144">
<rect width="500" height="375" fill="white" transform="matrix(-1 0 0 1 500 0)"/>
</clipPath>
</defs>
</svg>
