<svg width="408" height="376" viewBox="0 0 408 376" fill="none" xmlns="http://www.w3.org/2000/svg">
<circle cx="204" cy="188" r="188" fill="#EAF5EB"/>
<path fill-rule="evenodd" clip-rule="evenodd" d="M101.686 233.794C104.003 251.173 106.32 268.552 108.638 285.931L110.509 299.965C110.745 301.736 110.522 305.229 111.422 306.814C111.74 307.374 112.575 307.639 113.189 307.969C115.304 309.104 117.418 310.239 119.533 311.375C137.418 320.977 155.304 330.58 173.189 340.182C190.354 349.397 207.519 358.613 224.683 367.829C226.46 368.783 229.333 371.271 231.25 370.615C233.073 369.992 234.936 368.455 236.591 367.486C239.767 365.624 242.944 363.763 246.12 361.901C265.342 350.636 284.563 339.371 303.785 328.106C311.716 323.459 319.646 318.812 327.577 314.164C329.746 312.892 331.916 311.621 334.086 310.349C335.221 309.684 335.369 309.707 335.815 308.578C337.485 304.358 338.259 299.523 339.44 295.145C340.743 290.319 342.045 285.493 343.347 280.667C343.928 278.514 343.655 278.236 342.708 276.158C340.834 272.043 338.96 267.93 337.086 263.816C332.926 254.685 328.767 245.554 324.607 236.423C322.925 232.731 318.873 230.133 315.956 227.417L270.664 185.25C269.514 184.178 268.364 183.107 267.213 182.036C267.024 188.474 265.752 195.394 267.618 201.613C270.68 211.818 273.741 222.024 276.803 232.229C278.283 237.163 279.762 242.095 281.242 247.028C281.517 247.944 283.191 251.579 282.744 252.385C282.495 252.832 280.381 253.284 279.923 253.458C277.956 254.206 275.989 254.955 274.021 255.703C268.539 257.789 263.058 259.874 257.577 261.959C252.646 263.835 247.716 265.71 242.786 267.586C241.114 268.222 239.151 269.4 237.385 269.302C235.806 269.214 234.01 268.432 232.481 268.039C229.794 267.347 227.107 266.654 224.42 265.962C219.141 264.603 213.863 263.243 208.584 261.883C202.646 260.354 197.631 255.861 192.552 252.536C183.823 246.82 175.093 241.104 166.364 235.389C164.366 234.08 164.358 233.333 163.562 230.944C161.772 225.575 159.982 220.206 158.193 214.837C157.237 211.97 156.062 209.091 155.34 206.156C154.15 201.313 153.444 196.298 152.501 191.401C152.217 189.923 151.932 188.445 151.648 186.968C147.992 188.451 144.336 189.935 140.68 191.419C140.15 191.634 137.568 192.275 137.339 192.802C137.193 193.135 137.961 194.646 138.071 194.971C141.102 203.949 144.134 212.926 147.165 221.904C148.119 224.728 149.072 227.552 150.026 230.376C147.747 226.795 145.469 223.214 143.19 219.634C141.4 225.656 139.609 231.678 137.819 237.7C133.587 232.817 129.355 227.935 125.123 223.052C123.659 227.935 122.194 232.817 120.729 237.7C116.172 231.678 111.615 225.656 107.057 219.634C106.516 222.776 105.974 225.919 105.432 229.062C105.268 230.01 105.301 232.731 104.669 233.482C104.149 234.101 102.652 233.794 101.686 233.794Z" fill="#079011"/>
<path fill-rule="evenodd" clip-rule="evenodd" d="M390.228 271.36C389.972 279.541 390.15 290.16 385.673 297.353C384.95 298.514 382.502 302.13 382.229 298.949C381.961 295.826 382.729 292.733 381.968 289.574C381.561 287.884 380.191 284.191 377.85 285.718C376.657 286.496 376.342 288.418 375.876 289.631C375.185 291.425 374.412 293.191 373.685 294.972C371.146 301.188 368.515 308.607 362.871 312.72C363.61 307.36 365.623 301.636 364.269 296.218C363.808 294.371 362.411 290.999 360.005 292.081C357.66 293.136 356.141 297.84 355.034 299.934C351.679 306.285 348.248 312.517 344.471 318.631C342.571 321.706 340.52 324.516 338.034 327.147C336.48 328.792 334.542 331.573 332.092 331.818C332.092 327.129 333.635 322.599 335.044 318.183C336.559 313.435 337.94 308.647 339.427 303.89C340.717 299.763 341.777 295.669 342.635 291.437C342.991 289.687 343.273 287.875 344.764 286.745C346.105 285.729 348.223 285.246 349.718 284.499C353.644 282.538 357.682 280.422 361.329 277.984C362.826 276.983 364.115 275.69 365.683 274.792C367.47 273.769 369.138 272.908 370.791 271.661C377.923 266.282 384.352 259.665 388.684 251.788C389.387 254.952 390.319 258.045 390.422 261.307C390.527 264.652 390.333 268.017 390.228 271.36ZM331.532 308.962C330.392 307.036 328.654 307.825 327.123 308.754C324.747 310.195 322.364 311.625 319.976 313.048C315.116 315.944 310.346 318.99 305.598 322.065C295.933 328.321 285.93 333.442 275.74 338.738C265.892 343.855 256.432 349.946 247.205 356.102C244.987 357.581 242.785 359.095 240.655 360.7C238.765 362.124 237.254 364.124 235.264 365.392C233.192 366.713 231.767 365.641 229.785 364.668C227.307 363.45 224.724 362.429 222.19 361.331C211.966 356.899 201.713 352.298 191.767 347.266C181.881 342.266 172.514 336.505 163.042 330.782C158.531 328.057 154.097 325.159 149.647 322.334C144.912 319.328 140.009 317.076 135.042 314.52C132.844 313.388 130.897 311.853 128.64 310.824C126.267 309.744 123.76 308.969 121.635 307.409C120.682 306.71 119.879 305.875 118.79 305.38C117.896 304.974 116.881 304.906 115.998 304.475C114.202 303.598 113.688 301.818 113.341 299.967C111.104 288.084 109.915 275.871 108.618 263.856C107.89 257.099 107.077 250.368 106.07 243.647C105.616 240.617 106.529 238.269 107.009 235.322C107.568 231.879 107.789 228.364 108.164 224.897C109.934 228.176 111.464 231.616 113.716 234.608C115.375 236.812 118.21 239.939 121.266 239.865C126.016 239.75 125.799 231.603 125.99 228.369C128.154 230.301 128.81 233.447 130.606 235.69C132.246 237.738 134.477 240.279 136.995 241.196C142.297 243.127 141.787 233.285 141.495 230.494C141.349 229.094 140.558 226.88 142.434 227.518C144.161 228.106 145.842 230.543 147.293 231.66C149.802 233.593 152.555 235.199 155.129 237.044C158.323 239.333 161.769 240.987 165.026 243.119C167.062 244.452 169.284 244.752 171.504 245.732C174.757 247.169 177.631 249.311 180.727 251.033C186.858 254.443 193.66 257.501 200.366 259.556C202.536 260.221 205.428 262.096 207.074 260.17C208.088 258.984 208.754 257.173 209.614 255.844C210.702 254.161 211.858 252.523 213.058 250.918C217.325 245.215 222.06 239.829 227.318 235.018C233.436 229.422 240.125 224.386 247.28 220.192C250.355 218.389 263.192 210.312 266.013 215.997C263.695 215.852 261.685 216.7 259.702 217.762C259.218 218.022 256.722 219.804 257.306 218.233C256.581 218.369 255.946 219.314 255.397 219.735C254.448 220.461 253.009 221.3 251.91 221.902C250.824 222.496 249.483 222.641 248.493 223.362C248.132 223.625 247.912 224.052 247.568 224.337L246.579 224.344C246.431 224.892 246.283 225.439 246.135 225.986C245.577 224.196 244.78 226.524 243.847 227.281C243.286 227.735 242.398 228.203 241.737 228.497C241.243 228.716 241.167 228.206 240.688 228.594C240.262 228.938 239.99 229.697 239.532 230.128C238.97 230.657 238.251 231.067 237.625 231.518C236.425 232.383 235.155 233.061 233.939 233.881C232.303 234.983 231.446 236.879 229.858 238.032C229.105 238.578 227.937 238.642 227.529 238.991C226.508 239.869 226.845 241.199 224.941 241.258C225.114 241.535 225.218 241.836 225.254 242.161C224.8 242.083 224.397 241.895 224.044 241.596C224.123 243.496 222.255 244.174 221.135 245.344C220.49 246.017 219.686 246.965 219.231 247.776C219.155 247.912 219.01 248.994 218.979 249.009C218.806 249.092 217.754 248.168 217.854 248.245C217.56 250 215.862 251.659 215.118 253.283C214.727 254.139 214.329 255.515 213.557 256.117C213.347 256.281 212.701 256.11 212.167 256.679C211.776 257.096 211.324 257.867 211.165 258.42C211.059 258.79 211.186 259.746 211.034 259.968C210.755 260.373 210.32 259.966 209.883 260.265C209.074 260.819 209.053 261.684 207.87 261.798C208.686 263.78 213.61 264.39 215.399 264.954C220.46 266.547 225.77 268.137 230.501 270.577C231.724 271.208 232.882 271.728 233.099 273.181C233.401 275.204 232.37 277.893 232.174 279.936C231.641 285.453 231.532 291.133 231.643 296.674C231.749 301.922 231.919 307.219 232.163 312.461C232.39 317.321 233.37 322.084 233.899 326.91C234.044 328.235 233.947 334.207 236.224 333.907C238.126 333.656 236.925 329.576 236.889 328.407C236.81 325.818 237.355 323.176 237.332 320.564C237.321 319.309 237.87 318.227 237.923 317.026C237.975 315.839 237.385 314.901 237.562 313.671C237.732 312.49 241.222 305.699 237.87 306.494C238.066 305.524 238.238 304.545 238.497 303.588C238.856 303.91 239.145 304.287 239.363 304.717C239.661 302.631 239.561 300.549 239.746 298.462C239.829 297.516 240.213 296.48 240.082 295.527C240.107 295.132 240.056 294.744 239.931 294.365C239.725 294.146 239.47 294.032 239.167 294.02C239.007 293.498 238.966 293.355 239.249 292.843C239.371 292.495 239.612 292.279 239.973 292.193C240.66 292.111 240.739 291.716 240.208 291.008C240.485 289.609 240.521 288.726 240.321 287.331C240.153 286.158 240.771 283.888 240.141 282.845C239.406 281.624 239.041 282.808 238.905 281.116C238.875 280.759 238.852 280.012 238.996 279.656C239.154 279.267 239.628 279.426 239.688 279.288C240.1 278.348 240.127 276.497 238.671 276.658C238.728 275.987 238.785 275.315 238.842 274.644C239.894 275.855 239.526 274.83 240.123 274.157C240.926 273.249 241.713 273.093 242.862 272.734C245.924 271.779 248.874 270.342 251.866 269.176C258.202 266.707 264.655 264.502 270.806 261.584C283.742 255.446 296.421 248.784 309.436 242.808C308.507 241.083 309.085 240.999 309.764 239.379C310.672 240.009 310.481 239.569 311.126 239.531C311.068 238.99 311.236 238.827 311.63 239.041C311.944 239.137 312.266 239.172 312.596 239.143C313.402 239.282 314.06 239.725 314.792 239.893C315.032 240.071 315.297 240.203 315.585 240.293C315.843 240.234 316.064 240.106 316.247 239.908C317.432 240.128 317.832 241.021 317.884 242.314C317.893 242.539 317.204 242.77 317.402 243.072C317.746 243.6 318.673 243.474 319.203 243.542C319.087 244.091 318.97 244.639 318.855 245.187C321.181 244.114 320.574 247.474 321.28 248.578C321.477 248.886 321.915 248.64 322.143 248.997C322.44 249.463 322.35 250.123 322.604 250.587C323.176 251.636 323.75 251.509 324.321 252.71C327.303 258.984 331.272 264.829 334.135 271.238C335.498 274.288 336.728 277.391 338.151 280.414C339.461 283.197 340.209 285.563 339.276 288.601C337.111 295.651 334.795 302.828 331.958 309.637C331.816 309.412 331.675 309.187 331.532 308.962ZM180.51 361.58C180.307 361.926 180.104 362.272 179.901 362.618C179.45 360.023 180.652 361.226 180.51 361.58ZM170.961 356.721C170.31 356.526 170.591 355.463 170.612 355.009C171.024 355.522 171.427 356.045 171.77 356.608C171.5 356.646 171.23 356.683 170.961 356.721ZM144.787 346.744C145.471 346.361 145.963 346.086 146.738 345.651C145.95 347.186 145.95 347.186 144.787 346.744ZM103.611 211.521C102.567 214.085 105.751 229.913 102.786 230.429C102.361 229.04 102.308 225.215 100.548 224.759C98.3635 224.192 98.5788 228.13 98.2805 229.347C93.7966 226.228 91.8049 220.203 89.6628 215.429C86.9323 209.344 84.7839 203.014 82.7321 196.673C80.9777 191.252 79.5271 185.735 77.7541 180.322C76.6403 176.923 75.4397 173.515 74.6906 170.011C74.528 169.25 73.8879 167.32 74.4318 166.596C75.2224 165.544 78.0681 166.749 78.9851 167.025C84.9338 168.815 91.1047 169.586 97.2165 170.626C104.007 171.781 110.782 172.974 117.614 173.87C119.321 174.094 121.029 174.305 122.738 174.512C123.846 174.645 125.524 174.511 126.577 175.009C128.708 176.014 129.161 179.862 129.953 181.858C132.905 189.305 136.381 196.517 139.489 203.897C142.29 210.545 144.413 217.617 148.439 223.671C145.437 222.34 141.632 215.303 138.277 219.359C136.834 221.103 137.198 223.401 137.313 225.488C137.48 228.506 137.532 231.546 137.532 234.568C134.249 233.715 132.043 229.988 130.32 227.348C127.965 223.742 126.482 220.344 125.44 216.21C124.988 214.42 123.791 214.376 122.727 213.304C122.043 212.616 121.699 211.688 120.719 212.69C119.487 213.949 120.306 217.434 120.519 218.921C121.025 222.457 122.682 227.9 121.071 231.223C118.896 235.708 113.069 224.424 112.386 222.794C112.039 221.964 105.839 206.053 103.611 211.521ZM99.5398 134.661C99.9069 134.717 100.274 134.773 100.641 134.829C100.345 135.091 99.7292 136.007 99.2263 135.764C99.3308 135.397 99.4353 135.029 99.5398 134.661ZM118.988 130.488C118.873 130.614 118.758 130.74 118.642 130.866C118.116 130.208 118.302 129.249 118.302 128.488C118.998 128.908 119.168 129.749 118.988 130.488ZM120.56 137.79V139.942C119.102 139.31 119.073 138.984 120.56 137.79ZM122.33 140.526C121.309 140.245 121.187 140.019 121.33 138.449C121.754 139.329 122.032 139.908 122.33 140.526ZM128.21 156.458C127.782 157.56 125.279 154.935 125.371 154.149C125.459 153.4 125.843 153.176 126.373 153.658C126.549 153.818 126.288 154.394 126.4 154.595C126.804 155.319 127.618 155.912 128.21 156.458ZM128.238 163.095C127.611 164.66 126.493 162.195 128.132 162.128C128.239 162.443 128.275 162.765 128.238 163.095ZM127.022 160.627C126.779 160.303 126.543 159.975 126.314 159.641C127.158 159.811 127.828 161.041 128.718 160.22C128.613 161.471 127.724 161.506 127.022 160.627ZM72.4587 140.293C71.1018 138.812 79.9499 137.772 81.0173 137.518C88.7634 135.671 96.0769 132.998 103.32 129.718C106.775 128.154 110.212 126.57 113.586 124.836C115.043 124.087 117.04 123.452 118.257 122.328C119.126 121.526 119.091 120.919 120.22 120.441C121.178 120.036 121.226 120.419 121.665 119.686C121.929 119.247 122.227 117.636 122.073 117.16C121.653 115.86 121.031 116.914 120.158 116.018C119.53 115.372 119.682 113.535 119.854 112.774C120.076 113.137 120.204 113.53 120.238 113.954C121.185 113.487 120.803 111.884 121.839 111.621C122.93 111.345 122.818 112.195 123.102 113.064C123.927 111.853 123.266 110.821 122.82 109.638C125.089 109.213 127.527 108.802 129.776 109.556C131.402 110.102 132.794 111.443 134.511 111.702C136.193 111.956 136.516 111.158 137.756 110.349C138.762 109.693 139.627 110.466 140.145 109.97C139.825 111.645 137.08 111.416 137.418 113.509C137.57 114.45 138.724 115.297 139.25 116.03C139.909 116.949 140.435 117.967 140.884 119.003C142.632 123.035 143.379 127.715 144.113 132.027C145.922 142.67 146.151 153.524 147.853 164.201C148.664 169.287 149.477 174.376 149.899 179.512C150.004 180.796 150.788 183.709 150.147 184.944C149.604 185.987 148.397 185.99 147.338 186.242C145.264 186.735 143.318 187.405 141.329 188.146C139.546 188.811 139.028 189.219 137.883 187.541C136.777 185.918 136.229 183.984 135.437 182.204C134.428 179.937 133.21 177.75 132.04 175.563C134.338 175.563 135.661 174.322 135.6 171.987C135.533 169.4 133.406 168.786 132.529 166.66C131.676 167.768 131.604 167.799 130.996 166.747C130.301 165.545 129.832 163.344 129.406 161.98C129.711 162.304 130.015 162.629 130.319 162.953C131.086 161.898 129.884 160.234 129.483 159.24C128.863 157.704 128.753 156.045 128.165 154.514C127.844 153.678 127.101 153.021 126.919 152.149C126.797 151.566 127.284 151.011 127.169 150.418C126.967 149.387 125.801 148.281 125.438 147.232C124.88 145.618 124.274 144.198 123.582 142.626C122.645 140.499 122.863 138.266 122.691 136.002C122.513 133.655 121.761 131.408 121.496 129.071C121.312 127.456 121.887 125.423 120.665 124.13C120.522 126.28 121.138 126.246 119.118 126.633C116.819 127.073 115.151 128.786 112.976 129.298C112.528 129.403 112.201 127.445 112.376 130.116C111.333 129.346 109.107 130.302 109.938 130.759C109.308 131.432 108.069 130.967 107.862 131.975C105.722 129.896 102.292 136.974 99.7448 133.282C99.3244 135.784 97.5124 137.264 95.0798 137.595C93.8566 137.761 93.1027 138.169 92.0173 138.535C91.7971 138.609 91.716 138.926 91.4553 139.011C91.0568 139.141 90.4719 138.749 90.1848 138.825C89.6003 138.981 88.9504 139.75 88.1345 139.903C87.1989 140.078 86.1784 139.997 85.2419 139.889C84.071 139.753 83.5559 139.615 82.4094 140C81.3781 140.347 80.2736 141.32 79.3166 140.261C77.8132 142.862 74.2287 142.226 72.4587 140.293ZM141.963 108.905C140.825 108.768 141.615 107.79 142.142 107.496C143.573 106.698 143.191 109.052 141.963 108.905ZM78.9646 118.239C85.6423 108.605 97.0642 101.986 107.114 96.4163C112.603 93.3743 118.206 90.4256 123.97 87.9358C126.836 86.6985 129.735 85.5091 132.661 84.4221C134.223 83.8416 135.805 83.3137 137.387 82.7884C137.825 82.6433 138.621 82.198 139.079 82.2415C139 82.2337 140.217 82.5647 139.978 82.6687C140.762 82.3274 141.135 81.4373 142.057 81.0813C143.093 80.6809 144.413 80.5154 145.523 80.4793C146.505 80.447 147.355 80.8528 148.29 80.8845C148.905 80.9051 149.427 80.6131 150.029 80.5701C150.338 80.5486 150.31 81.0095 150.496 81.0364C150.576 81.0481 151.397 80.74 151.405 80.7454C151.703 80.9373 151.968 81.6863 152.238 81.9788C153.012 82.8177 154.149 83.4021 155.182 83.8435C156.439 84.3806 159.505 84.9207 158.084 86.908C159.093 86.763 159.563 87.6751 158.299 87.906C157.614 88.0315 157.322 87.4046 156.814 86.9768C155.639 85.9905 152.789 84.5862 151.097 84.6497C150.146 84.6853 149.41 85.4075 148.533 85.6697C147.669 85.9275 147.241 85.5276 146.484 85.5911C145.598 85.6648 145.028 86.4143 144.183 86.5476C143.393 86.6726 142.952 86.1336 142.246 86.1712C141.406 86.2156 140.592 86.9451 139.791 87.1902C138.515 87.5799 137.579 87.8455 136.334 88.4915C133.921 89.7439 131.226 90.2195 128.739 91.2976C126.751 92.1595 124.496 92.6131 122.656 93.5662C120.611 94.6253 118.555 95.6804 116.552 96.8313C115.105 97.6629 112.162 97.949 110.567 97.7376C110.544 100.676 109.097 98.616 107.64 99.9031C107.985 100.207 108.376 100.431 108.813 100.574C107.234 101.205 105.774 101.99 104.243 102.715C102.662 103.465 100.974 103.63 99.9353 105.049C98.9782 106.356 99.3025 105.681 97.8742 106.196C97.219 106.432 96.6491 107.153 96.177 107.637C95.3654 108.469 95.1858 109.729 94.7224 108.019C94.5871 108.227 94.0549 109.555 93.9514 109.589C93.3708 108.972 93.2873 109.703 92.9626 109.964C93.1335 110.532 92.8894 110.904 92.2302 111.08C91.8967 111.328 91.5588 111.572 91.2175 111.809C89.9792 112.668 88.403 113.405 87.531 114.685C86.8879 114.305 86.6496 113.651 87.0412 112.982C85.8122 114.115 84.3459 115.279 84.0134 117.022C83.8606 116.875 83.6823 116.768 83.4802 116.703C82.9812 117.04 83.6311 118.044 83.9475 118.27C85.3274 117.734 83.6027 117.928 84.53 118.014C84.7941 118.039 85.0656 118.237 85.3571 118.24C86.2121 118.251 87.0153 118.21 87.863 118.08C89.7321 117.792 91.5691 117.255 93.3786 116.717C95.3493 116.131 97.3205 115.546 99.2478 114.827C100.835 114.236 102.395 113.576 103.955 112.919C104.578 112.656 105.201 112.39 105.825 112.129C107.01 111.634 107.635 110.821 107.469 112.214C108.413 112.057 109.231 110.723 109.956 110.179C110.975 109.414 112.122 108.843 113.33 108.452C113.819 108.294 114.178 108.093 114.684 108.092C114.932 108.091 115.081 108.79 115.237 108.752C116.321 108.49 115.827 107.889 116.314 107.024C117.38 105.133 120.251 104.087 122.014 103.012C123.134 102.33 123.928 101.413 124.961 100.657C125.445 100.304 125.796 100.148 126.302 99.9988C126.69 99.8841 127.165 100.775 127.417 99.8797C126.515 99.511 125.771 99.0564 124.904 98.7874C124.29 98.5965 125.026 97.9436 124.053 98.3323C123.663 98.4886 123.529 99.2444 123.385 99.5608C122.299 98.5906 119.244 99.596 117.955 100.002C117.866 100.03 117.468 99.8201 117.28 99.8328C116.536 99.8826 116.018 100.884 115.529 101.316C114.226 102.463 112.814 102.942 111.21 103.597C111.637 101.265 114.773 100.31 116.604 99.4173C119.28 98.1116 121.771 96.4451 124.7 95.7429C126.652 95.2747 129.237 94.8982 130.08 97.1668C130.584 98.5266 130.648 101.905 128.941 102.532C128.761 101.898 129.338 101.355 129.512 100.804C127.813 101.453 127.533 103.493 126.243 104.558C125.518 105.157 125.259 105.348 124.908 105.927C124.56 106.501 124.393 107.036 123.577 107.647C122.244 104.815 122.469 108.695 121.793 109.181C122.065 108.986 120.691 109.557 120.855 109.497C120.792 109.52 120.193 108.551 119.805 108.571C119.098 108.608 119.234 109.386 118.894 109.778C117.74 111.103 116.249 111.972 114.392 111.763C114.349 112.706 114.64 113.833 113.352 113.919L113.183 111.828C112.483 112.537 111.56 113.211 110.99 114.032C110.341 114.966 110.41 115.541 109.334 116.163C108.209 116.814 105.815 118.096 104.476 118.207C104.807 117.738 104.749 117.313 104.301 116.935C103.628 117.63 102.634 117.698 101.917 118.325C104.405 119.365 100.006 119.311 99.4475 119.428C99.0739 119.508 98.7478 119.848 98.3693 119.925C97.8669 120.027 97.802 119.498 97.3693 119.666C96.7365 119.911 96.9934 120.603 96.3313 120.95C95.8557 121.2 95.049 121.197 94.5124 121.434C93.2336 122.001 90.5095 123.255 89.6452 121.734C89.2072 124.344 84.7341 122.755 83.0783 122.579C80.8108 122.339 76.861 121.274 78.9646 118.239ZM88.489 91.5305C88.8098 91.2566 89.1311 91.2766 89.4524 91.5911C89.0051 89.2288 92.4646 88.0818 93.9738 87.0774C95.9758 85.7454 98.3322 83.1609 100.952 83.3655C100.505 83.6966 100.059 84.0276 99.613 84.3587C100.25 84.4412 100.887 84.5237 101.523 84.6062C101.164 85.1336 100.805 85.6604 100.445 86.1873C99.8571 82.947 96.7898 87.0379 95.9021 87.6341C95.008 88.2342 94.1164 88.6814 93.322 89.4134C92.5349 90.1385 91.8244 91.4441 90.5232 90.7918C90.4045 92.6424 88.9167 92.1404 87.8879 93.1653C87.8449 92.5222 88.2131 92.0677 88.489 91.5305ZM102.08 82.2927C105.246 81.1067 108.003 78.9138 110.987 77.3474C113.837 75.8509 116.745 74.5071 119.642 73.1111C121.112 72.4026 123.804 70.5706 125.485 71.5042C127.752 72.7649 124.631 73.1717 123.82 73.6082C123.52 71.6668 122.47 73.4256 123.097 74.5056C121.367 73.7586 117.594 76.6814 115.944 77.4876C115.571 77.6702 115.738 77.7757 115.313 77.9905C115.209 78.0432 114.126 78.2898 113.816 78.3938C112.262 78.9138 111.238 78.5008 110.569 80.3762C110.428 79.9348 110.288 79.4929 110.148 79.0511C109.175 81.2351 106.219 82.1912 104.328 83.4827C103.841 83.8157 102.449 85.1072 101.831 84.8401C100.971 84.468 101.316 82.5784 102.08 82.2927ZM159.202 88.8777C160.539 88.9661 159.25 89.5896 159.617 90.0017C159.576 89.9553 160.423 90.6775 160.312 90.4793C160.461 90.7459 160.82 90.7361 161.004 91.2781C161.636 93.1419 158.875 95.0677 157.944 96.1253C156.133 98.1824 155.087 100.787 153.2 102.779C152.348 103.678 151.5 104.299 150.319 104.635C149.492 104.869 148.618 104.618 147.858 105.413C147.246 106.053 147.385 106.417 146.709 106.757C145.517 107.357 144.992 106.831 143.833 108.128C142.836 105.416 145.702 105.42 147.197 103.905C149.262 101.812 151.524 99.7014 153.46 97.4632C155.18 95.4744 155.869 93.7307 156.685 91.3147C156.943 90.553 157.223 88.9197 157.932 88.4417C159.037 87.6975 158.374 88.8225 159.202 88.8777ZM165.777 159.327C169.283 155.405 173.633 151.884 178.347 149.521C180.032 148.677 182.431 147.568 184.178 148.868C185.891 150.143 185.522 152.685 184.832 154.415C184.17 154.155 184.795 151.724 184.451 151.124C183.702 149.813 182.086 150.509 180.987 150.949C179.698 151.463 178.549 152.032 177.529 152.966C177.115 153.344 176.322 153.683 176.057 153.944C175.659 153.778 175.424 153.899 175.354 154.305C175.436 154.554 175.426 154.799 175.324 155.04C175.266 155.117 174.748 154.803 174.674 154.866C174.338 155.153 174.024 155.491 173.693 155.759C173.03 156.295 172.465 156.549 171.854 157.297C170.675 158.743 169.114 159.59 167.929 160.968C167.661 161.279 167.341 162.077 167.28 162.147C166.681 162.846 165.793 163.4 165.117 164.14C163.949 165.419 162.701 166.277 161.353 167.374C160.773 167.845 160.095 168.354 159.709 169.01C159.533 169.309 159.434 170.95 159.428 170.957C158.106 172.406 158.363 169.493 158.463 169.128C159.536 165.198 163.167 162.247 165.777 159.327ZM158.559 185.903C158.724 186.52 158.859 187.03 159.026 187.657C157.978 186.797 157.978 186.797 158.559 185.903ZM157.427 187.924C157.042 188.312 156.655 188.698 156.264 189.081C155.406 188.175 157.584 187.769 157.427 187.924ZM156.883 172.318C156.472 173.977 154.971 175.988 153.939 177.298C154.052 177.153 153.058 177.444 152.945 177.51C152.577 177.722 153.457 179.102 152.183 178.486C151.731 178.741 152.621 179.783 152.007 180.25C150.232 176.204 155.079 172.699 156.956 169.697C157.874 170.539 157.113 171.387 156.883 172.318ZM145.351 194.19C146.645 194.523 147.319 194.313 148.193 193.042C148.718 192.278 148.91 190.926 150.112 192.068L150.323 190.599C152.039 191.303 151.895 193.845 152.644 195.255C153.009 193.66 153.873 189.207 156.518 189.921C159.487 190.723 154.545 195.83 154.086 197.081C153.077 195.514 153.474 196.971 152.704 197.192C152.043 197.382 151.011 196.896 150.208 196.94C147.766 197.073 145.62 198.171 143.389 199.101C142.824 197.578 142.26 196.055 141.695 194.532C143.008 194.634 145.724 191.137 146.11 193.678C145.136 193.509 144.862 193.552 144.387 194.439C144.69 194.285 145.011 194.202 145.351 194.19ZM150.833 214.068C150.829 214.056 153.36 214.212 153.585 214.13C155.317 213.497 154.676 211.533 155.03 210.145C155.744 210.802 155.366 211.999 155.586 212.848C155.844 213.846 156.592 214.697 156.662 215.764C156.82 218.176 154.841 217.641 153.341 218.421C152.059 219.088 151.917 219.927 150.834 218.13C150.541 217.643 149.911 216.376 149.976 215.754C150.039 215.138 151.015 214.626 150.833 214.068ZM152.872 224.504L152.173 223.72C154.258 224.358 153.028 223.399 153.508 222.087C155.108 223.152 156.413 224.247 157.679 222.114L159.866 230.937C158.397 231.283 156.502 229.013 155.494 228.233C154.912 227.782 151.682 226.047 153.621 225.541C153.371 225.195 153.122 224.849 152.872 224.504ZM167.152 196.798C165.937 197.952 164.714 198.599 163.392 199.507C162.232 200.303 162.632 201.218 161.626 202.107C160.959 202.698 159.394 203.299 158.569 203.75C157.1 204.553 155.784 204.705 154.273 203.807C154.684 207.118 152.416 207.377 149.593 208.033C148.247 208.346 147.45 208.824 146.48 207.591C145.816 206.747 145.555 205.219 146.382 204.448C147.695 203.221 151.193 203.644 152.878 202.873C154.156 202.288 155.458 198.991 157.035 200.191C156.221 198.895 157.169 198.546 157.877 197.621C158.652 196.608 159.128 195.424 159.929 194.419C161.453 192.509 163.792 190.587 165.955 189.435C167.859 188.422 168.859 189.139 169.144 191.267C169.287 192.337 169.282 193.931 168.683 194.88C168.492 195.183 167.862 195.186 167.671 195.47C167.338 195.967 167.643 196.33 167.152 196.798ZM189.492 171.117C191.011 172.293 190.863 174.764 191.102 176.447C191.44 178.818 191.195 181.113 191.159 183.529C191.121 186.059 189.879 187.708 189.295 190.08C188.645 192.719 187.807 194.116 186.35 196.33C187.93 196.579 185.578 201.298 185.191 201.908C184.77 202.572 181.376 205.627 182.831 205.627C182.028 206.686 181.154 207.772 180.354 208.802C180.039 209.207 179.487 209.366 179.239 209.652C178.734 210.234 178.703 210.752 178.341 211.431C177.792 212.461 177.611 212.186 176.889 212.933C176.39 213.449 176.063 214.13 175.573 214.625C173.995 216.218 173.794 214.913 172.912 213.686C172.777 214.014 172.536 214.22 172.191 214.304C171.915 212.915 173.817 211.512 174.617 210.669C175.927 209.286 177.124 207.762 178.282 206.25C180.763 203.01 182.992 199.568 184.751 195.88C186.622 191.956 188.116 187.709 188.893 183.428C189.485 180.164 190.047 174.567 185.687 173.737C182.515 173.133 179.019 175.06 176.405 176.62C174.812 177.57 173.21 178.515 171.692 179.584C170.045 180.743 168.621 182.384 166.833 183.314C167.811 182.805 164.584 184.336 165.078 183.906C164.846 184.107 165.046 184.721 164.893 184.999C164.694 185.36 164.002 185.716 163.691 185.949C162.871 186.566 161.56 187.196 161.187 188.214C155.984 184.502 166.331 177.912 168.984 176.234C174.245 172.905 183.4 166.401 189.492 171.117ZM203.527 135.017C203.477 132.345 205.654 128.696 207.124 126.516C207.843 125.449 208.992 125.491 209.414 124.233C209.657 123.509 209.338 122.749 209.41 122.021C209.508 121.037 209.935 120.248 210.427 119.403C214.877 111.758 220.283 104.991 226.041 98.3211C228.881 95.033 231.572 91.6184 234.634 88.5296C235.914 87.2395 239.352 82.6018 241.319 83.0657C242.36 83.3113 242.966 84.9007 243.436 85.7117C244.214 87.053 245.069 88.3094 246.013 89.5427C248.507 92.7991 251.383 95.6575 254.78 97.9656C256.902 99.408 259.045 100.81 261.119 102.321C262.826 103.565 265.408 104.987 266.627 106.733C267.847 108.479 266.056 109.958 265.077 111.408C263.555 113.664 262.156 116.001 260.628 118.254C260.021 117.817 260.178 116.93 259.762 116.371C259.393 115.876 258.871 115.674 258.361 115.368C257.384 114.782 256.425 114.067 255.543 115.048C253.998 116.764 256.122 120.823 258.411 120.377C258.68 122.072 254.11 124.862 252.964 125.795C249.448 128.655 245.822 131.142 241.178 131.401C239.299 131.505 237.343 131.363 235.557 130.734C234.702 130.432 233.756 130.019 233.1 129.362C232.315 128.576 232.115 127.406 231.353 126.628C230.693 125.952 229.785 125.848 229.125 125.171C228.464 124.492 228.137 123.421 227.869 122.543C227.345 120.826 227.246 119.016 226.742 117.296C226.439 116.262 226.19 114.878 225.201 115.872C223.765 117.317 224.486 121.858 224.854 123.589C225.38 126.057 226.613 128.048 227.904 130.172C229.304 132.476 229.821 134.613 230.072 137.279C230.542 142.27 231.974 147.059 234.203 151.549C235.141 153.44 236.264 155.218 237.277 157.065C237.75 157.927 238.81 160.867 240.097 160.851C242.153 160.826 239.224 154.831 238.818 153.825C236.566 148.251 234.415 142.393 233.933 136.358C237.161 137.189 240.679 137.978 244.022 137.451C241.864 142.277 244.118 147.081 243.842 152.048C243.705 154.538 243.605 156.836 243.656 159.32C243.702 161.497 242.718 163.674 241.868 165.643C240.18 169.554 238.054 174.378 234.919 177.374C232.297 179.878 228.79 180.074 225.365 179.497C217.573 178.185 212.453 172.195 209.183 165.392C207.082 161.022 205.476 156.357 204.479 151.611C203.325 146.118 203.63 140.589 203.527 135.017ZM213.646 98.0003C206.375 92.739 216.941 86.7644 222.32 87.5779C223.581 87.7683 225.903 88.2898 225.784 89.9363C225.688 91.282 223.443 92.782 222.581 93.6126C220.124 95.9827 217.623 100.877 213.646 98.0003ZM266.544 214.903C266.294 214.679 264.259 215.228 265.065 214.024C265.735 213.024 267.592 214.278 268.267 214.535C267.711 214.919 267.227 215.514 266.544 214.903ZM236.266 278.535C235.641 278.613 234.988 276.927 237.24 278.186C236.916 278.303 236.591 278.419 236.266 278.535ZM236.201 306.007C236.279 306.762 236.51 307.26 235.973 307.809C235.52 307.25 235.461 306.462 236.201 306.007ZM237.116 317.357C237.05 317.768 236.983 318.179 236.918 318.59C236.397 318.327 235.878 318.064 235.357 317.8C235.943 317.653 236.53 317.505 237.116 317.357ZM237.753 307.786C238.528 308.076 238.167 307.149 238.73 307.018C238.932 307.984 238.683 308.81 238.129 309.607C238.076 309.418 237.792 307.8 237.753 307.786ZM257.569 239.292C256.481 239.154 256.317 240.303 255.506 240.749C254.982 241.037 253.388 240.821 253.091 241.372C253.484 241.485 253.877 241.599 254.269 241.712C253.37 242.197 252.471 242.681 251.572 243.166C253.735 243.166 255.988 242.133 258.135 242.436C259.043 242.565 259.708 242.871 260.278 243.61C260.623 244.058 260.927 244.779 260.983 245.328C261.043 245.922 260.58 246.332 260.662 246.615C261.63 246.641 261.515 248.229 261.298 248.876C260.827 250.279 258.955 252.475 257.278 251.586C257.98 252.581 257.801 253.15 256.763 253.727C256.858 253.398 256.927 252.823 256.397 252.88C256.26 253.431 256.313 254.306 255.862 254.722C255.358 255.188 254.907 254.644 254.425 254.947C253.853 255.306 254.025 255.87 253.575 256.26C252.981 256.774 252.896 256.408 252.185 256.509C251.108 256.661 251.795 255.992 250.933 256.864C250.634 257.165 250.685 257.948 250.201 258.388C249.273 259.233 246.795 260.114 245.905 259.03C243.766 262.42 237.354 263.234 234.37 260.557C229.61 256.289 238.485 247.609 241.415 244.858C244.356 242.097 247.623 239.713 250.928 237.411C252.806 236.103 254.733 234.916 256.701 233.751C257.915 233.032 259.439 231.719 260.931 231.845C262.269 231.958 263.412 232.996 264.821 233.202C265.839 233.35 267.818 233.595 266.533 234.977C265.932 235.623 263.572 236.667 262.768 236.824C262.296 236.916 261.798 236.74 261.33 236.835C260.538 236.998 259.994 237.666 259.133 237.581C259.405 238.86 258.907 239.462 257.569 239.292ZM271.655 191.817C271.656 192.817 269.83 192.568 269.448 192.228C268.821 191.669 268.799 189.997 268.566 189.237C269.627 189.504 271.654 190.481 271.655 191.817ZM256.945 158.81C260.78 155.657 264.814 152.766 269.077 150.22C270.604 149.309 272.76 147.47 274.656 147.699C275.452 147.796 277.096 148.71 276.497 149.717C276.385 149.906 275.5 149.981 275.227 150.118C274.917 150.273 274.674 150.699 274.386 150.91C272.394 152.372 270 153.27 268.002 154.766C266.359 155.995 264.827 157.37 263.059 158.425C261.363 159.436 259.591 160.076 257.98 161.197C258.012 161.174 255.885 161.939 256.302 162.078C254.436 161.453 256.407 159.252 256.945 158.81ZM282.52 157.636C284.799 156.727 287.028 155.625 289.414 155.015C290.604 154.71 291.826 154.481 293.059 154.618C293.268 154.252 293.547 154.171 293.896 154.375C294.168 154.793 294.526 155.114 294.971 155.338C295.651 155.861 298.154 156.544 297.654 157.698C297.323 158.461 294.814 158.524 294.125 158.696C292.05 159.213 290.114 160.376 287.976 160.661C287.775 160.688 287.12 160.445 287.113 160.447C286.278 160.629 285.584 161.494 284.867 161.909C283.324 162.803 281.107 162.952 279.999 164.494C283.587 166.926 286.7 164.514 289.854 162.678C291.744 161.578 293.772 160.784 295.837 160.079C296.916 159.711 298.005 159.328 299.099 159.005C299.551 158.84 300.017 158.721 300.494 158.649C300.939 158.56 301.257 158.722 301.448 159.134C302.771 159.09 302.884 158.261 303.68 159.808C304.802 161.99 303.085 161.879 301.472 162.147C299.235 162.518 296.959 163.354 294.755 163.908C294.246 164.036 289.788 165.07 289.782 165.106C289.58 166.513 302.376 165.21 303.475 164.999C305.413 164.626 307.492 163.567 309.499 163.823C311.04 164.018 314.55 166.279 312.092 167.781C311.609 165.465 309.947 167.378 309.08 168.159C307.925 169.2 306.27 169.1 304.685 169.508C302.518 170.064 296.971 172.153 295.432 169.49C295.919 171.824 287.076 170.638 285.86 170.561C284.675 170.485 283.145 170.737 282 170.399C281.253 170.179 280.837 169.693 280.134 169.584C279.962 169.769 279.755 169.896 279.515 169.963C279.158 169.782 278.837 169.553 278.55 169.275C276.181 168.187 272.517 167.585 273.833 164.118C275.074 160.848 279.509 158.836 282.52 157.636ZM304.717 159.657C304.776 159.453 304.835 159.249 304.893 159.045C304.901 159.67 306.39 159.936 306.218 160.745C305.837 162.537 304.118 159.845 303.97 159.552C304.219 159.587 304.468 159.621 304.717 159.657ZM313.809 162.633C313.982 163.367 315.962 164.929 315.471 165.29C314.691 164.228 312.532 164.71 313.809 162.633ZM280.403 229.596C281.128 228.158 283.32 230.607 283.088 228.152C284.28 228.26 283.536 229.166 284.964 228.768C285.499 228.618 285.861 228.025 286.513 227.888C286.687 227.852 287.439 227.911 287.698 227.904C288.557 227.877 291.923 227.782 289.606 226.655C290.903 225.798 291.063 226.233 292.233 227.018C291.933 225.394 293.655 226.316 294.457 226.519C293.885 225.593 295.304 224.607 295.764 223.981C295.599 224.946 295.686 226.025 297.082 225.408C297.429 225.255 297.351 224.573 297.627 224.462C298.132 224.259 298.414 224.629 298.595 224.608C298.774 224.588 299.149 224.688 299.524 224.547C300.01 224.364 299.776 223.711 300.393 223.614C300.795 223.551 301.088 224.141 301.579 224.146C301.831 224.149 302.251 223.893 302.443 223.907C302.476 223.909 302.716 223.331 303.01 223.317C303.441 223.296 303.616 224.449 303.774 224.674C304.528 225.743 305.53 226.44 306.686 227.011C304.594 228.928 300.375 228.725 297.744 229.372C296.32 229.722 295.104 230.228 293.801 230.879C293.486 231.084 293.215 231.335 292.988 231.632C292.804 231.51 292.619 231.387 292.434 231.264C291.72 231.308 291.044 230.955 290.24 231.091C287.756 231.51 285.811 233.37 283.287 233.785C282.153 233.971 281.22 234.232 280.482 233.248C279.833 232.386 279.941 230.513 280.403 229.596ZM276.997 218.135C277.56 218.611 276.883 220.16 277.972 219.992C278.746 219.872 278.592 218.673 279.199 218.418C279.997 218.085 280.478 218.876 281.228 218.803C282.626 218.665 282.546 217.445 281.365 216.908C282.593 216.584 282.987 218.036 284.074 218.023C285.502 218.006 285.161 216.321 286.377 216.042C286.903 215.921 286.727 216.694 287.069 216.79C287.752 216.982 288.228 216.652 288.833 216.362C289.374 216.103 289.759 215.602 290.35 215.432C290.619 215.354 291.303 215.496 291.5 215.352C291.898 215.062 292.255 213.932 292.646 213.783C292.566 213.813 293.85 214.457 294.034 214.517C293.922 214.994 293.66 215.051 293.25 214.688C293.25 215.764 296.242 216.1 295.629 214.769C297.247 215.439 296.042 215.784 295.88 216.719C295.816 217.095 295.597 217.085 295.662 217.482C295.692 217.665 296.54 217.508 296.529 217.757C296.458 219.364 291.336 219.858 290.366 220C288.357 220.293 286.456 220.787 284.52 221.395C283.078 221.847 280.592 223.144 279.058 223.063C276.852 222.948 276.564 220.069 276.997 218.135ZM272.067 201.737C271.529 199.949 273.255 196.257 275.503 196.719C276.055 196.832 276.192 197.29 276.62 197.493C277.219 197.777 278.193 197.628 278.712 197.921C279.875 198.58 279.289 200.258 280.455 200.865C278.614 201.311 272.922 204.578 272.067 201.737ZM274.197 208.682C274.99 208.256 276.276 208.201 276.816 207.382C277.086 207.568 277.595 208.7 278.078 208.527C278.303 208.447 278.536 207.833 278.52 207.833C278.95 207.821 279.036 207.239 279.694 207.304C280.297 207.365 280.973 208.09 281.51 208.361C281.418 206.562 281.879 206.39 283.338 205.427C283.657 205.216 283.925 204.424 284.219 204.104C283.937 205.991 284.649 206.002 286.156 206.285C288.046 206.641 289.223 207.656 289.98 209.481C288.37 209.167 286.293 209.545 285.658 211.276C284.373 208.928 279.702 212.168 278.191 212.832C277.069 213.324 275.764 213.987 274.824 212.839C274.162 212.03 274.541 211.057 274.555 210.339C274.559 210.114 274.792 210.1 274.771 209.764C274.743 209.336 274.185 209.164 274.197 208.682ZM291.389 245.607C290.964 245.768 288.775 245.858 288.761 245.133C288.749 244.492 292.624 245.138 291.389 245.607ZM287.834 243.261C286.177 244.282 284.324 240.684 283.716 239.648C285.453 239.87 286.301 238.417 287.324 237.313C288.298 239.446 289.777 238.319 291.332 237.606C293.166 236.766 295.176 236.76 297.054 236.085C297.641 235.875 298.181 235.562 298.754 235.321C299.215 235.149 299.674 234.972 300.132 234.791C300.456 234.498 300.572 234.137 300.477 233.709C300.323 233.35 300.428 233.123 300.792 233.029C301.225 233.158 301.666 233.233 302.117 233.253C302.842 233.11 303.882 232.427 303.008 231.69C303.945 230.84 304.883 231.685 305.784 232.058C305.57 231.447 305.357 230.836 305.142 230.225C305.59 230.415 306.918 232.271 307.053 232.261C307.911 232.196 307.822 231.044 308.315 230.579C308.6 230.93 308.681 233.548 309.801 232.666C310.279 232.289 309.249 231.005 308.995 230.713C310.275 231.002 311.393 232.53 311.739 233.717C311.131 233.804 310.569 233.682 310.053 233.349C309.723 235.002 312.781 234.332 313.277 235.196C314.246 236.886 307.939 238.059 307.117 238.216C305.472 238.53 303.531 238.646 302.024 239.375C300.58 240.073 300.238 240.273 298.55 240.404C296.624 240.553 294.745 241.188 292.882 241.682C291.264 242.111 289.268 242.377 287.834 243.261ZM323.039 182.767C324.56 182.22 329.683 179.38 330.987 180.643C330.849 180.509 331.927 182.737 331.916 182.596C332.009 183.755 331.981 184.221 330.554 184.777C329.533 185.174 328.643 184.329 327.724 184.665C326.715 185.033 327.421 185.686 326.902 186.141C326.332 186.641 325.235 186.857 324.526 187.075C322.792 187.611 321.044 188.059 319.318 188.636C315.805 189.81 312.086 190.903 308.477 191.734C305.78 192.354 301.201 193.897 298.716 192.075C298.473 193.111 297.881 192.969 297.057 193.12C296.411 193.238 295.243 193.558 294.669 193.574C293.714 193.602 291.057 193.352 291.423 192.011C291.322 192.381 293.489 191.117 293.114 191.038C294.034 191.232 293.736 190.769 294.49 190.511C295.475 190.175 296.504 190.193 297.509 189.836C300.044 188.938 302.17 187.772 304.845 187.209C310.956 185.923 317.143 184.889 323.039 182.767ZM78.0695 321.24C77.5744 321.253 77.1892 319.846 78.6955 320.851C78.487 320.981 78.2785 321.11 78.0695 321.24ZM66.1701 319.42C65.4968 319.592 65.2282 319.216 65.3654 318.293C66.3044 317.922 66.5725 318.297 66.1701 319.42ZM56.9836 317.535C56.8112 316.712 57.4216 316.527 57.9748 316.157C57.9192 317.248 57.9192 317.248 56.9836 317.535ZM33.8693 310.761C32.9382 310.556 31.6975 309.646 31.4841 311.175C31.3283 310.821 30.5334 309.156 30.8747 308.77C31.0529 308.569 31.7277 309.501 31.656 309.409C32.4709 307.761 33.8757 309.75 34.6608 310.338C34.3972 310.479 34.133 310.62 33.8693 310.761ZM275.967 128.585C276.288 127.906 276.668 127.69 277.103 127.938C276.419 129.528 274.1 130.39 275.967 128.585ZM292.075 113.661C292.65 114.738 291.786 115.193 291.169 116.088C291.53 115.123 291.78 114.454 292.075 113.661ZM362.085 218.761C364.156 218.761 368.568 217.667 369.817 220.035C370.644 218.426 371.583 221.443 372.301 221.927C372.381 221.982 372.898 221.587 373.138 221.732C373.5 221.951 373.813 222.549 374.02 222.904C374.646 223.974 374.915 225.246 375.261 226.424C371.644 226.424 367.934 225.582 364.32 225.276C361.947 225.074 359.621 225.069 357.245 225.197C356.773 225.222 355.835 225.066 355.431 225.155C355.021 225.245 354.278 226.081 353.825 225.947C354.528 227.265 363.527 230.458 364.213 228.998C363.4 228.506 361.593 228.128 361.594 226.938C361.596 225.606 363.289 225.608 364.187 225.647C366.15 225.733 369.437 226.386 370.241 228.428C370.586 229.303 370.692 231.506 370.313 232.35C370.069 232.896 369.655 233.552 368.998 233.662C368.729 233.708 368.342 233.35 368.3 233.359C366.954 233.644 364.461 234.726 362.992 233.201C361.933 234.572 356.832 233.074 355.27 232.557C352.538 231.653 348.777 230.411 347.118 227.863C345.095 224.756 349.207 222.131 351.568 220.868C354.795 219.142 358.482 218.762 362.085 218.761ZM375.869 225.944C376.505 226.123 377.139 226.303 377.774 226.482C377.604 227.595 375.099 226.714 375.869 225.944ZM395.063 266.411C395.259 261.95 393.969 258.022 393.224 253.708C393.04 252.639 393.228 250.769 392.416 249.89C391.64 249.049 389.908 249.733 389.839 248.246C389.075 249.141 389.152 249.328 388.21 248.299C388.382 248.741 388.407 249.189 388.285 249.646C387.7 249.311 385.582 248.199 385.76 249.72C384.019 249.335 384.523 248.245 383.53 247.414C383.388 247.296 382.821 247.715 382.6 247.536C382.201 247.213 382.003 246.919 381.666 246.502C381.238 247.019 380.655 247.393 380.132 247.803C379.827 247.14 379.235 246.654 378.523 246.492C379.189 247.885 380.834 249.689 378.577 250.481C377.23 250.954 375.024 250.374 373.597 250.485C368.309 250.895 362.517 249.742 357.404 248.482C352.152 247.188 346.84 245.362 342.116 242.692C341.11 242.122 340.475 241.449 339.608 240.742C338.765 240.056 338.153 239.948 337.139 239.509C335.316 238.719 333.648 237.451 332.26 236.039C329.278 233.003 326.506 229.032 327.337 224.586C328.165 220.155 331.211 216.692 334.47 213.774C338.319 210.327 342.665 207.45 347.278 205.13C349.34 204.094 354.615 200.198 356.653 202.477C357.955 203.933 357.223 205.791 355.444 206.115C355.005 206.195 354.546 205.901 354.102 206.102C353.463 206.393 353.688 206.737 353.424 206.98C352.965 207.401 352.478 208.058 351.793 208.424C349.402 209.699 347.09 210.709 344.804 212.261C343.751 212.977 342.737 213.284 341.808 213.909C340.884 214.53 340.674 215.557 339.432 214.923C339.874 216.73 337.218 218.664 336.177 219.771C334.564 221.485 332.631 223.673 333.383 226.208C334.856 231.172 341.512 234.942 345.771 237.124C351.087 239.847 356.948 242.014 362.867 242.911C365.809 243.357 368.85 243.633 371.815 243.915C374.123 244.136 377.665 243.329 379.325 245.408C379.377 242.984 386.947 243.198 388.558 242.888C385.328 231.845 378.985 222.028 372.203 212.855C368.875 208.352 365.607 203.721 361.813 199.593C357.66 195.074 352.915 191.035 348.406 186.877C339.564 178.721 329.563 171.443 319.386 165.031C309.233 158.634 298.717 152.338 287.594 147.777C274.889 142.568 261.514 139.141 248.124 136.223C249.94 133.909 252.895 132.78 255.22 131.087C256.035 130.494 257.135 129.071 258.193 128.877C259.339 128.666 260.24 129.898 261.056 130.517C263.396 132.292 265.015 131.538 267.696 131.431C269.3 131.367 273.098 132.261 273.774 130.091C274.674 131.288 273.369 132.248 272.702 133.126C273.188 133.804 273.579 133.101 274.059 132.995C274.207 132.872 274.355 132.749 274.503 132.627C274.741 132.282 274.956 132.28 275.147 132.62C275.433 133.051 275.721 132.955 276.011 132.334C276.091 132.284 276.17 132.234 276.249 132.184C276.596 131.999 276.93 131.707 277.253 131.477C279.689 129.737 281.86 128.254 284.549 126.971C286.807 125.895 285.593 123.836 287.081 122.382C287.418 122.053 287.985 122.218 288.345 121.939C288.698 121.665 288.751 121.355 289.008 121.061C289.627 120.356 288.891 119.537 290.469 120.401L289.9 117.197C292.994 120.199 292.982 111.56 293.404 110.282C293.349 110.451 293.682 109.143 293.682 109.154C293.773 106.562 294.127 104.683 291.091 104.532C292.24 103.809 292.592 105.221 293.122 103.76C293.388 103.027 292.558 101.768 293.881 102.241C294.159 100.684 293.884 99.4241 293.537 97.9114C293.182 96.3631 293.391 95.3299 293.407 93.7815C293.425 92.0252 292.603 90.26 292.34 88.5305C292.134 87.1761 292.346 85.0398 290.595 85.5374C290.349 85.1521 291.214 83.9671 291.178 83.3811C291.124 82.471 290.136 81.5462 289.856 80.6721C289.445 81.0969 288.864 81.2386 288.304 81.0467C288.83 79.8592 288.337 79.4602 287.833 78.4363C287.545 77.8499 287.719 77.2024 287.101 76.782C286.747 76.5408 286.144 76.947 285.866 76.6643C285.272 76.0589 285.491 75.2556 285.082 74.4578C284.569 73.4573 283.397 72.6931 282.589 71.9422C278.048 67.721 273.115 64.4949 267.074 62.8455C260.98 61.1814 253.875 60.5852 247.801 62.5047C245.373 63.2718 243.218 63.1931 241.033 64.6258C240.324 65.0906 240.248 64.9661 239.888 65.741C239.805 65.9217 240.56 66.4026 240.098 66.698C239.596 67.0188 239.042 66.3665 238.786 65.825C235.625 68.1131 232.663 71.1634 230.863 74.6609C229.073 78.1365 228.909 82.2195 228.226 85.9964C225.075 82.3968 220.814 80.6712 216.18 82.4016C212.142 83.9094 209.012 87.2239 208.222 91.5178C207.74 94.1355 208.267 96.7864 209.456 99.1482C209.97 100.169 210.592 101.299 211.538 101.986C212.285 102.529 213.566 102.452 213.918 103.432C214.457 104.932 211.341 108.173 210.532 109.487C209.069 111.864 207.709 114.318 206.674 116.914C202.962 111.672 199.409 105.946 195.189 101.112C191.206 96.5491 186.458 92.4573 181.801 88.6009C172.136 80.5969 162.087 73.0774 151.275 66.701C141.208 60.7635 129.048 57.4671 117.316 58.6326C105.852 59.7718 97.0759 67.0218 89.6906 75.3836C75.4904 91.4612 66.7932 114.377 65.9436 135.779C65.6882 142.208 66.1779 148.553 67.7658 154.789C68.5222 157.758 68.4123 160.678 68.8518 163.686C69.3479 167.078 70.2058 170.459 71.0354 173.782C74.1955 186.442 78.2219 199.092 82.7399 211.332C85.0891 217.697 87.9314 223.92 91.7766 229.532C93.5525 232.125 95.8532 234.154 97.7644 236.615C99.6184 239.003 100.108 241.934 100.516 244.864C101.493 251.888 102.142 258.943 102.73 266.009C102.979 269.004 103.271 271.972 103.667 274.946C104.013 277.538 103.143 277.411 100.962 278.291C101.405 275.962 90.9836 277.547 89.9997 277.706C88.9289 277.879 87.7951 277.881 86.9519 278.019C86.009 278.172 85.0861 278.394 84.0002 278.363C82.404 278.317 79.4152 277.909 78.8059 279.947C78.3864 277.585 75.6159 280.168 77.6657 279.729C75.5617 279.965 73.4148 279.573 71.2854 279.771C68.8449 279.998 66.3835 280.214 63.9602 280.581C62.2732 280.836 60.6633 281.486 58.9733 281.675C56.8108 281.916 54.5539 281.894 52.3703 282.086C44.3161 282.797 35.968 284.553 28.1389 286.565C26.3654 287.021 24.3278 287.344 22.6335 288.076C22.1799 288.271 21.7717 288.709 21.3371 288.877C20.6086 289.158 20.7082 288.964 20.0612 289.093C16.1848 289.867 12.1858 291.133 8.30978 292.126C6.15987 292.678 2.6628 293.175 0.908897 294.675C0.122764 295.347 -0.564247 296.539 0.695518 297.303C1.70187 297.912 3.13839 296.939 3.95284 296.412C3.22726 298.303 1.8586 299.246 2.59786 301.397C3.18136 303.097 4.49874 305.193 6.5256 304.096C6.79708 304.727 6.90694 305.983 7.70626 306.215C8.42452 306.424 8.94454 305.513 9.64815 305.728C9.90011 305.804 9.80441 306.281 10.03 306.405C10.4187 306.619 10.8127 306.71 11.258 306.861C11.6408 306.99 12.257 307.257 12.6565 307.285C12.9099 307.303 13.507 306.87 13.5051 306.87C14.0871 306.958 14.4001 308.072 14.8191 308.394C15.363 308.812 15.8122 308.907 16.4934 309.058C17.9094 309.373 19.7346 309.912 20.6692 308.462C20.4553 309.497 21.863 309.396 22.4841 309.527C22.4152 308.982 22.114 308.482 21.6491 308.183C23.0378 308.275 22.4748 309.655 23.5012 310.02C24.2326 310.279 24.1496 309.62 24.7092 309.547C25.4465 309.45 26.0061 309.986 27.1574 309.492C27.4069 310.601 27.4983 311.719 28.8601 311.885C29.6594 311.982 31.5232 310.538 31.4177 311.74C33.2033 311.216 33.8811 311.57 34.8142 313.144C34.9719 312.178 35.7351 312.458 36.4353 312.398C37.5451 312.303 37.5734 312.393 38.4338 311.764C38.5124 311.707 39.1892 310.157 39.49 311.12C39.6252 311.552 38.7312 312.568 38.4001 312.826C38.8112 313.034 40.1584 313.762 40.6765 313.628C41.1247 313.512 41.1262 312.746 41.6648 312.707C41.5329 313.147 41.4016 313.588 41.2693 314.029C42.3171 314.181 43.1926 313.48 44.0202 312.966C44.8093 314.961 47.0647 313.837 48.2912 315.339C48.9401 316.133 48.9704 316.737 50.2067 316.944C51.4719 317.157 52.5769 316.601 53.6521 317.645C53.3112 316.997 52.4621 316.46 53.3059 315.764C53.8801 316.579 54.1765 317.561 54.8386 318.319C54.9299 317.933 55.0212 317.548 55.1125 317.162C56.8386 319.009 59.0114 319.025 61.2224 320.048V318.697C62.8054 321.113 62.8899 319.584 64.781 318.597C64.6525 319.308 64.5236 320.018 64.3952 320.728C65.7561 320.626 67.0276 322.238 68.1447 320.868C68.8195 322 69.6374 321.443 70.7434 321.803C71.3723 322.007 71.8405 322.626 72.4524 322.85C73.3698 323.186 73.6438 323.171 74.5075 323.463C75.2756 323.723 75.7121 324.229 76.6735 324.391C77.2981 324.496 77.8645 324.489 78.4621 324.46C78.6931 324.449 78.6169 323.929 79.1301 324.05C79.9235 324.238 80.5144 325.233 81.0857 325.743C81.945 323.583 84.3513 326.477 85.5144 326.862C85.6257 326.308 85.6057 325.641 86.0066 325.186C86.4773 326.217 86.6569 327.084 87.634 327.748C88.198 328.131 89.0261 328.406 89.6775 328.546C90.0891 328.634 90.8371 328.528 91.0959 328.655C91.5373 328.871 91.6999 329.449 92.1457 329.503C92.4079 329.535 92.7966 328.845 92.9929 328.899C93.8913 329.144 94.3903 330.235 95.2976 330.825C97.9973 332.582 101.395 332.752 104.403 333.137C105.157 333.234 105.267 333.028 105.88 333.47C106.207 333.707 106.059 334.427 106.461 334.629C107.977 335.388 107.978 333.767 108.296 332.76C108.798 333.422 108.884 334.295 109.57 334.822C109.945 334.811 110.32 334.819 110.694 334.847C110.905 335.088 111.043 335.366 111.108 335.68C112.016 336.294 113.045 336.08 113.983 336.541C114.29 336.692 114.835 337.604 115.214 337.866C115.892 338.336 116.941 338.587 117.716 338.791C119.341 339.219 121.671 338.651 122.638 340.347C123.922 338.971 123.425 340.615 124.297 340.96C124.811 341.163 125.585 340.353 126.156 340.434C127.184 340.578 127.554 341.691 127.883 342.5C128.509 342.361 128.079 340.59 128.062 340.201C128.84 340.11 129.012 342.158 129.147 342.608C130.375 342.017 128.359 340.177 129.679 339.586C129.558 341.154 130.808 342.445 128.576 342.67C128.884 343.614 136.082 344.663 136.582 343.829C136.693 345.37 137.728 343.931 138.11 343.404C138.153 344.303 137.846 345.578 138.855 345.996C139.541 346.28 141.087 345.546 141.356 344.874C141.663 345.901 142.177 345.867 142.817 346.519C143.257 346.967 143.546 347.743 144.007 348.118C144.855 348.808 146.433 348.703 147.421 348.549C149.355 348.247 149.126 347.876 149.815 349.886C149.971 349.123 150.459 347.528 151.311 348.714C151.853 349.468 150.699 351.128 150.365 351.79C151.111 351.381 151.85 350.895 152.698 350.719C152.745 350.98 152.789 351.534 152.664 351.776C152.689 351.727 153.593 352.334 153.929 352.502C153.848 352.461 154.194 350.951 154.184 351.001C155.377 351.737 154.55 353.145 155.606 353.871C155.879 354.059 156.52 353.84 156.85 353.954C157.425 354.153 157.922 354.692 158.432 355.007C158.025 354.46 158.083 353.542 158.111 352.91C158.371 353.054 158.556 353.591 158.819 353.634C158.918 353.65 159.946 353.786 159.939 353.781C161.009 354.53 160.788 354.624 159.87 355.525C160.198 356.041 161.57 355.145 161.941 354.996C162.018 355.198 162.038 355.93 162.184 356.061C162.273 356.278 162.362 356.494 162.45 356.711C162.724 356.507 163.018 356.439 163.332 356.507C163.53 356.575 165.077 357.205 165.182 356.99C164.844 356.88 164.537 356.712 164.262 356.486C165.155 355.683 165.743 355.257 166.566 356.416C166.669 356.562 166.313 357.086 166.419 357.277C166.812 357.986 167.619 358.55 168.168 359.127C168.395 358.33 167.866 356.333 169.127 356.406C170.134 356.464 170.901 358.904 170.552 359.663C170.952 359.225 173.343 358.79 173.794 358.927C175.07 359.313 174.712 360.493 176.282 358.764C177.352 359.503 176.409 359.783 176.602 360.683C176.884 360.742 177.152 360.673 177.405 360.474C177.216 364.301 180.04 361.377 181.873 361.961C182.593 362.191 182.777 363.008 183.55 363.246C183.958 363.372 184.413 363.074 184.81 363.147C185.129 363.101 185.445 363.045 185.759 362.978C186.158 362.779 186.345 363.002 186.321 363.648C186.961 363.98 186.719 364.11 187.468 364.175C187.95 364.217 188.394 363.715 188.943 363.8C189.888 363.949 189.763 364.675 190.368 365.054C190.912 365.396 191.525 365.385 192.195 365.319C192.536 365.285 193.495 364.845 193.61 364.844C194.326 364.834 193.938 364.681 194.797 365.296C195.466 365.776 195.747 366.086 196.568 366.307C197.51 366.559 199.181 367.112 199.815 366.431C200.671 367.714 201.341 366.772 202.471 366.857C203.049 366.901 203.141 367.126 203.655 367.216C204.489 367.362 205.53 367.236 206.417 367.52C207.815 367.97 207.973 368.195 209.402 368.256C209.659 368.155 209.917 368.054 210.175 367.953C210.252 368.384 210.454 368.735 210.783 369.007C211.582 369.174 212.107 368.771 212.766 368.329C213.258 369.859 214.851 369.992 216.215 370.194C218.414 370.518 220.518 370.696 222.639 371.419C224.43 372.029 226.225 372.715 227.948 373.496C229.465 374.184 230.896 375.213 232.612 374.73C236.5 373.636 240.267 369.645 243.52 367.353C247.372 364.639 251.527 362.403 255.552 359.963C271.578 350.249 288.508 342.032 304.309 331.957C312.935 326.456 320.94 319.921 330.204 315.47C328.885 320.92 326.64 326.452 327.046 332.158C327.209 334.457 327.886 337.174 329.669 338.779C331.874 340.763 334.329 339.5 336.438 338.082C340.956 335.044 343.968 330.612 347.35 326.449C351.349 321.526 354.451 316.236 357.388 310.624C358.092 311.612 357.557 313.266 357.567 314.362C357.581 315.759 357.958 317.106 358.606 318.353C360.279 321.573 363.462 322.354 366.339 320.148C371.875 315.902 375.088 308.341 378.054 302.252C379.746 305.4 382.147 309.362 386.21 307.114C389.563 305.259 391.532 301.114 392.558 297.603C395.552 287.355 394.603 276.916 395.063 266.411Z" fill="#232323"/>
<path fill-rule="evenodd" clip-rule="evenodd" d="M389.979 204.854C389.597 203.926 389.429 204.078 390.132 203.177C390.68 203.717 390.241 204.163 389.979 204.854ZM406.922 261.062C405.847 258.005 406.511 254.686 405.858 251.551C405.558 250.112 405.085 248.717 404.915 247.252C404.839 246.603 404.261 243.677 404.655 243.217C403.442 242.482 403.438 241.939 403.158 240.499C403.59 240.041 403.535 239.649 402.994 239.325C402.641 238.897 402.287 238.469 401.933 238.041C403.48 238.797 402.565 236.861 402.407 235.746C402.282 234.864 402.198 233.944 401.904 233.099C401.542 232.06 400.738 231.534 402.411 231.534C401.861 230.908 401.037 230.261 400.763 229.494C400.368 228.39 401.019 226.931 400.214 225.956C399.765 225.412 397.452 225.199 397.858 224.024C398.065 223.426 399.002 223.873 399.292 223.453C400.432 221.805 397.066 221.122 396.901 220.42C396.687 219.511 397.903 219.308 397.978 218.458C398.051 217.626 396.757 216.259 396.415 215.515C395.95 215.628 395.439 216.365 394.906 216.013C394.805 215.946 394.956 213.066 394.835 212.684C394.716 212.308 394.472 211.311 394.386 211.126C394.04 210.393 393.053 210.036 392.896 209.17C392.802 208.654 394.827 207.872 392.505 207.847C393.339 206.377 391.811 205.484 391.255 204.229C390.54 202.614 390.119 200.87 389.384 199.247C388.67 197.669 387.872 196.172 386.843 194.777C385.911 193.514 385.508 192.299 384.764 190.965C384.615 190.848 384.466 190.73 384.317 190.613C383.696 190.703 383.496 190.42 383.719 189.765C383.244 189.061 382.891 188.31 382.472 187.575C381.985 186.721 381.328 186.025 380.826 185.194C380.158 184.093 379.961 182.852 379.206 181.747C378.279 180.388 377.236 179.19 376.376 177.78C375.299 176.014 374.106 174.916 372.751 173.549C372.106 172.897 372.028 171.27 371.238 170.346C370.377 169.338 369.527 169.065 368.93 167.743C368.154 166.023 367.014 165.202 365.906 163.715C364.991 162.488 364.544 161.079 363.536 159.892C362.669 158.873 361.685 157.942 360.76 156.976C359.592 155.755 358.73 154.272 357.514 153.112C357.689 153.28 356.456 152.302 356.518 152.333C356.245 152.194 355.364 152.083 355.493 152.158C353.658 151.08 351.358 147.132 348.597 149.224C347.144 150.324 347.841 152.341 348.855 153.437C349.291 153.908 351.554 156.228 352.043 155.249C352.571 155.998 354.196 159.614 355.548 158.578C355.41 159.813 356.126 159.403 356.599 160.239C356.91 160.79 356.759 161.061 356.985 161.921C357.609 164.286 359.988 166.596 361.255 168.659C364.409 173.792 367.888 178.661 371.044 183.8C374.053 188.698 377.422 193.345 380.308 198.309C383.591 203.954 387.681 209.282 390.154 215.367C390.237 215.571 390.924 215.895 391.095 216.202C391.392 216.736 391.328 217.659 391.519 218.263C392.183 220.359 393.259 222.422 394.484 224.158C395.559 225.681 395.638 227.75 396.377 229.537C397.421 232.055 398.523 234.547 399.536 237.078C401.114 241.017 402.183 244.792 403.273 248.904C403.98 251.569 404.542 254.233 404.767 256.985C404.974 259.516 405.025 262.152 405.961 264.548C406.6 263.562 407.352 262.284 406.922 261.062Z" fill="#232323"/>
<path fill-rule="evenodd" clip-rule="evenodd" d="M46.0153 315.291C44.8815 315.062 43.8146 314.756 43.5743 313.455C43.4098 314.068 43.2457 314.682 43.0812 315.296C44.4615 315.609 45.8424 315.922 47.2228 316.234C46.9005 315.666 46.6652 315.422 46.0153 315.291Z" fill="#232323"/>
<path fill-rule="evenodd" clip-rule="evenodd" d="M49.0574 101.648C49.1434 101.281 49.2547 100.921 49.3919 100.57C49.4852 100.912 49.9422 101.652 49.6761 101.975C49.3372 102.385 48.9945 102.153 49.0574 101.648ZM54.6156 91.0728C54.9876 91.2369 55.7928 91.2686 56.2547 91.4073C55.0565 92.438 54.8455 92.1348 53.2962 92.0152C53.2274 90.9722 53.6512 90.6485 54.6156 91.0728ZM44.2293 116.892C44.39 116.897 44.5511 116.9 44.7127 116.904C44.7225 116.45 44.7108 115.997 44.6766 115.544C46.3104 115.9 45.3856 113.045 44.8724 112.454C46.4661 112.507 47.2425 107.461 47.7474 106.489C48.1956 105.626 48.7034 105.292 49.0311 104.239C49.3177 103.317 49.6278 102.488 50.0413 101.617C50.9915 99.6128 52.2381 97.793 52.0081 95.4576C52.8133 97.21 53.5213 95.4605 54.0321 94.6226C54.8548 93.2725 56.8621 91.5499 57.0755 89.9463C57.264 88.5347 56.2152 88.46 56.8343 87.1509C57.4603 85.8257 57.9749 85.9585 59.0716 85.5347C59.8011 85.2525 59.9461 85.5953 60.4608 84.6744C60.7943 84.0782 60.6766 83.6338 61.1038 83.1451C61.2801 83.2984 61.4808 83.3619 61.7054 83.3355C62.0521 82.878 62.2796 82.3682 62.3875 81.8062C62.6702 81.0474 62.807 80.3506 63.2327 79.628C63.6366 78.9434 64.3533 77.1119 64.7332 76.7818C65.1365 76.4312 67.4241 76.6094 67.4144 76.6221C68.3592 75.4336 66.6253 74.2496 69.0262 74.5C68.5521 73.6172 70.2176 72.5215 70.701 72.0303C71.9085 70.8042 72.0047 70.2369 72.2596 68.6949C72.389 67.9087 71.5443 67.9996 72.6766 67.8204C73.1448 67.7466 73.5941 68.3453 73.932 68.2574C75.4237 67.8707 73.8631 67.9444 74.2747 67.3365C74.4046 67.1436 75.0682 66.3653 75.0618 66.3736C75.0296 66.4126 75.2113 65.6963 75.3616 65.5123C75.6468 65.4878 75.9276 65.438 76.2034 65.3628C76.3436 65.0796 76.4676 64.7896 76.575 64.4927C77.6546 63.5923 79.2699 63.1895 80.0164 62.2002C80.4993 61.5606 80.3548 60.9341 80.9788 60.2964C81.5731 59.689 82.3592 60.129 82.4769 58.7569C82.6268 57.0113 80.7518 56.2344 79.9847 57.9961C77.9046 55.4341 69.2103 64.834 68.2059 66.0621C63.8431 71.3931 59.555 76.856 55.9764 82.751C52.4896 88.4952 49.6278 94.5391 47.3909 100.875C46.3123 103.929 45.6556 106.97 44.9969 110.13C44.7757 111.188 43.1229 115.903 43.8109 116.959C43.95 116.937 44.0897 116.914 44.2293 116.892Z" fill="#232323"/>
<path fill-rule="evenodd" clip-rule="evenodd" d="M387.64 247.624C388.375 247.134 388.375 247.134 388.504 246.208C387.518 246.388 387.518 246.388 387.64 247.624Z" fill="#232323"/>
<path fill-rule="evenodd" clip-rule="evenodd" d="M25.4149 309.941C25.4242 309.94 25.431 309.943 25.4364 309.948C25.4207 309.928 25.3641 309.869 25.4149 309.941Z" fill="#232323"/>
<path fill-rule="evenodd" clip-rule="evenodd" d="M24.9218 310.438C25.1488 310.929 25.5136 311.051 26.0165 310.804C26.2148 311.087 24.2968 309.036 24.9218 310.438Z" fill="#232323"/>
<path fill-rule="evenodd" clip-rule="evenodd" d="M58.0888 86.4661C56.9379 88.7224 58.3793 87.0813 58.3056 87.8142C58.3539 87.3328 58.5536 86.6467 58.0888 86.4661Z" fill="#232323"/>
<path fill-rule="evenodd" clip-rule="evenodd" d="M245.194 121.389C245.693 125.434 251.228 123.521 252.473 121.074C253.38 119.292 255.669 112.251 253.206 110.764C251.38 109.661 250.989 114.413 250.539 115.475C249.785 117.253 249.195 115.993 247.518 116.449C245.667 116.953 244.988 119.711 245.194 121.389Z" fill="#232323"/>
<path fill-rule="evenodd" clip-rule="evenodd" d="M239.146 113.983C241.125 114.423 243.064 114.196 244.469 112.634C245.248 111.768 246.283 110.052 244.882 109.215C243.612 108.456 242.172 110.232 240.835 109.865C239.016 109.365 239.952 107.415 239.328 106.127C237.035 107.448 235.756 113.23 239.146 113.983Z" fill="#232323"/>
<path fill-rule="evenodd" clip-rule="evenodd" d="M241.198 124.199C239.29 124.195 239.275 126.541 240.27 127.546C241.223 128.508 243.632 129.482 244.924 128.734C247.472 127.257 242.741 124.352 241.198 124.199Z" fill="#232323"/>
<path fill-rule="evenodd" clip-rule="evenodd" d="M130.227 217.479C130.634 217.677 131.834 218.694 132.34 218.235C131.626 217.516 130.912 216.796 130.198 216.077C129.803 216.51 129.533 217.142 130.227 217.479Z" fill="#232323"/>
<path fill-rule="evenodd" clip-rule="evenodd" d="M121.213 114.568C121.011 114.72 120.808 114.871 120.605 115.021C121.289 115.591 121.272 115.761 121.961 115.221C121.757 114.952 121.508 114.734 121.213 114.568Z" fill="#232323"/>
<path fill-rule="evenodd" clip-rule="evenodd" d="M250.476 248.804C250.093 248.116 249.368 249.385 248.879 249.592C248.082 249.927 247.428 248.15 247.656 250.28C245.855 249.456 244.762 251.348 243.6 252.333C241.959 253.726 239.952 254.481 238.857 256.459C244.01 257.664 249.672 253.222 253.514 250.304C254.141 249.827 257.275 247.423 255.151 247.191C254.282 247.096 251.12 249.962 250.476 248.804Z" fill="#232323"/>
<path fill-rule="evenodd" clip-rule="evenodd" d="M248.948 244.633C249.957 243.838 247.78 243.766 247.436 243.682C247.466 244.314 247.494 244.946 247.524 245.578C248.011 245.283 248.486 244.968 248.948 244.633Z" fill="#232323"/>
<path fill-rule="evenodd" clip-rule="evenodd" d="M245.156 247.285C245.458 247.096 246.299 246.508 245.727 246.069C245.209 246.399 244.84 246.936 244.759 247.548C244.891 247.461 245.023 247.373 245.156 247.285Z" fill="#232323"/>
<path fill-rule="evenodd" clip-rule="evenodd" d="M161.703 196.011C161.058 196.264 160.768 196.664 160.836 197.212C161.828 197.009 161.639 196.073 161.703 196.011Z" fill="#232323"/>
<path fill-rule="evenodd" clip-rule="evenodd" d="M368.841 46.0159C375.84 50.9871 383.867 54.3831 391.181 58.8601C393.011 59.9807 398.715 62.3074 398.659 64.386C398.627 65.6013 396.913 67.1252 396.163 67.9675C394.877 69.4104 393.668 70.8684 392.481 72.3948C387.05 79.3845 381.936 86.4402 376.05 93.0789C375.164 94.0774 372.495 98.8455 371.633 96.4773C371.242 95.4036 371.564 94.197 370.546 93.196C370.022 92.6804 367.997 92.3963 368.587 91.2903C368.98 91.4671 369.374 91.6443 369.767 91.8206C369.462 90.9368 369.484 89.9685 369.026 89.1331C368.741 88.614 368.185 88.3684 367.992 87.7839C367.726 86.9763 368.178 86.0378 368.102 85.2053C368.028 84.3753 367.597 83.5906 367.341 82.8074C365.818 78.1648 365.271 73.4846 364.491 68.6946C363.72 63.9548 362.518 59.3635 362.047 54.571C361.548 49.509 360.937 44.4573 360.122 39.4358C361.577 39.6399 362.695 41.2205 363.724 42.114C365.341 43.5183 367.097 44.7766 368.841 46.0159ZM363.355 95.0232C363.021 94.761 362.76 94.4387 362.571 94.0569C366.002 92.3577 363.932 95.2566 363.355 95.0232ZM361.269 91.3992C359.774 91.8113 358.7 91.8948 357.547 91.2796C357.438 91.2214 357.564 90.7717 357.366 90.6795C357.194 90.5994 356.931 90.6985 356.783 90.6233C356.281 90.3679 355.403 90.9275 355.317 89.9499C357.225 89.366 359.102 88.2883 361.116 88.1067C363.916 87.8547 363.787 90.7048 361.269 91.3992ZM354.718 85.7644C352.678 86.2415 350.998 87.3557 348.83 87.0647C346.796 86.7922 345.028 85.7371 343.423 84.5212C347.438 83.3845 351.648 83.1795 355.66 82.0798C356.966 81.7219 358.682 80.7781 360.09 81.1585C361.654 81.5813 361.753 83.0461 362.221 84.3791C359.718 84.8293 357.196 85.1853 354.718 85.7644ZM341.959 80.1082C339.999 80.5764 337.996 81.6003 336.357 79.8333C336.092 79.5481 335.861 79.8328 335.892 78.9544C335.925 78.0281 336.766 77.4314 337.489 77.1052C339.189 76.3386 341.572 76.8342 343.378 76.7214C346.258 76.5422 349.19 75.9436 352.039 75.4827C354.012 75.1638 356.049 74.4558 358.066 74.5955C359.622 74.7034 361.5 76.03 359.232 76.9978C357.166 77.8796 354.068 77.7444 351.83 78.1262C348.521 78.6907 345.224 79.3279 341.959 80.1082ZM340.045 70.8875C340.172 71.0169 340.299 71.1462 340.425 71.2756C340.404 71.2708 341.177 70.6453 341.382 70.6272C342.375 70.5408 343.375 70.6091 344.37 70.553C346.663 70.4236 348.974 70.0242 351.226 69.5842C353.06 69.2258 354.929 68.6082 356.817 68.7629C358.452 68.8967 358.624 69.2317 358.731 70.8093C354.558 70.8093 350.259 70.7214 346.158 71.6047C343.488 72.1794 340.546 73.8914 339.209 70.8054C339.487 70.8328 339.766 70.8601 340.045 70.8875ZM342.653 64.2083C343.688 64.9963 346.509 63.6858 347.749 63.5549C349.096 63.4124 350.363 63.2644 351.668 62.929C352.825 62.6311 356.654 61.1438 357.542 62.5662C358.903 64.7454 353.392 65.1453 352.519 65.2532C348.855 65.7058 345.054 66.1072 341.489 67.0681C341.877 66.115 342.265 65.1619 342.653 64.2083ZM347.679 56.8064C347.946 57.8137 356.232 54.1018 356.382 56.7996C356.499 58.8694 348.185 59.9006 346.691 59.719C347.041 58.7659 347.972 57.9124 347.679 56.8064ZM350.461 50.4749C350.637 48.4431 350.909 48.4548 352.539 48.2634C353.781 48.1174 355.489 47.3889 355.166 49.6038C354.889 51.5002 350.283 52.5251 350.461 50.4749ZM353.422 43.4841C353.814 42.3933 354.696 43.8616 354.715 44.4163C354.764 45.8923 353.645 45.573 352.568 45.573C352.868 44.8835 353.153 44.1863 353.422 43.4841ZM367.058 35.2961C366.839 35.0315 365.605 34.9304 365.254 34.802C364.391 34.4856 364.513 33.8113 363.409 34.4763C363.354 34.4207 363.459 33.9207 363.399 33.8977C363.368 33.886 362.594 33.594 362.343 33.4329C361.736 33.0442 361.189 32.6638 360.632 32.176C360.039 31.658 359.445 30.906 358.768 30.4934C358.482 30.3196 358.249 30.073 357.904 30.0198C357.011 29.8821 357.267 30.5041 356.487 30.6277C356.006 30.7039 355.655 30.1423 355.027 30.3845C354.483 30.5935 354.168 31.3557 353.925 31.8093C353.045 33.4602 352.366 35.2371 351.504 36.9055C347.097 45.4373 342.088 53.6453 337.819 62.2566C335.762 66.405 333.617 70.5823 332.17 74.991C331.126 78.1707 328.77 82.8157 330.797 85.9929C332.271 88.303 335.223 89.3005 337.578 90.4168C341.121 92.0964 344.388 94.2918 347.97 95.9202C352.242 97.8621 356.391 99.8933 360.555 102.062C362.331 102.987 363.933 104.319 365.703 105.195C366.786 105.73 368.458 104.816 368.81 106.044C370.167 104.401 372.363 105.496 373.933 104.339C374.857 103.658 375.531 102.318 376.301 101.479C377.457 100.222 378.711 99.0564 379.889 97.8215C384.568 92.9167 388.887 87.8084 393.144 82.5403C397.209 77.5095 401.959 72.7566 405.393 67.2498C406.757 65.0637 407.004 62.7712 406.104 60.3562C405.446 58.5945 403.863 55.9343 401.602 57.1008C402.46 55.677 399.152 54.1565 398.149 53.8782C398.133 53.8743 397.936 54.968 397.656 54.9407C397.756 54.9504 396.815 52.5173 396.402 52.2053C395.175 51.2771 393.683 50.1941 392.345 49.4299C391.117 48.7293 389.822 48.3821 388.633 47.5979C387.192 46.6477 385.868 45.5208 384.422 44.5769C383.025 43.6658 381.467 42.5886 379.924 41.9622C378.585 41.4187 377.383 41.3123 376.178 40.4216C374.688 39.3196 373.388 38.572 371.669 37.8127C370.182 37.156 368.122 36.5823 367.058 35.2961Z" fill="#232323"/>
<path fill-rule="evenodd" clip-rule="evenodd" d="M70.4819 233.614C70.7553 232.972 71.0278 232.33 71.3012 231.688C71.6391 232.807 71.7339 233.364 70.4819 233.614ZM70.8457 236.58C70.2534 236.686 70.4868 234.828 70.4868 234.504C71.5097 235.083 70.6626 235.777 70.8457 236.58ZM69.9223 231.22C70.4272 230.921 70.9321 230.624 71.437 230.325C70.7339 231.628 71.0097 230.814 71.2998 231.684C70.7695 231.836 70.2539 231.659 69.9223 231.22ZM66.9301 241.401C65.0376 248.268 59.0263 253.684 52.6772 256.489C49.0288 258.1 45.4419 258.503 41.5019 258.324C39.9824 258.254 38.1943 257.761 36.7319 257.853C35.6059 257.923 35.6567 257.972 34.7241 258.925C34.3115 258.166 34.6103 257.632 33.7827 257.19C32.75 256.638 32.3213 257.281 31.8091 258.045C31.1386 257.35 30.8642 256.987 29.9956 256.575C30.0229 256.588 29.164 256.555 29.1992 256.566C29.0439 256.518 28.1098 255.917 27.8174 255.808C26.6172 255.358 25.2295 255.173 24.122 254.527C23.1533 253.963 22.3554 252.379 21.247 253.596C21.2461 251.563 18.5073 250.72 17.2236 249.655C15.2177 247.991 13.623 245.527 12.623 243.144C11.5566 240.602 11.2007 238.166 10.7016 235.546C10.353 233.716 8.06979 231.071 9.44089 229.224C9.76755 229.999 9.61423 230.791 10.1567 231.494C10.645 230.553 10.9135 229.5 11.1342 228.47C11.2426 227.966 11.8706 226.485 11.7993 226.046C11.6543 225.146 10.541 225.098 11.1582 223.995C12.4384 225.388 13.4716 222.942 12.5044 221.967C12.0268 222.505 11.8515 223.117 11.6313 223.784C10.3725 221.243 13.8564 222.062 13.0942 219.768C14.3657 219.523 15.0966 219.203 15.58 217.946C16.1176 216.548 15.7221 216.244 16.9428 215.32C17.3628 215.002 18.5503 214.546 18.7675 214.023C19.188 213.014 18.1181 212.715 19.0551 211.769C19.3716 212.324 20.605 213.423 21.2802 212.377C21.4155 212.169 20.8476 212.021 21.2607 211.541C21.8725 210.83 22.5571 210.132 23.5918 210.282C22.7724 208.233 28.0078 208.071 29.3486 207.588C30.6924 207.104 31.8325 206.786 33.2573 206.674C34.6806 206.562 34.7514 206.145 35.9565 205.288C36.0586 206.514 36.3535 206.244 37.2251 206.46C37.4345 206.101 37.6494 206.061 37.8691 206.339C38.0879 206.547 38.3554 206.645 38.6709 206.633C39.1494 206.658 39.6924 206.596 40.1938 206.606C41.3711 206.629 42.5854 206.531 43.7402 206.556C44.0381 206.506 44.3164 206.402 44.5771 206.245C44.686 206.45 44.7954 206.655 44.9038 206.861C45.5156 206.937 45.563 207.704 46.3154 206.866C46.5381 207.932 47.1777 207.377 47.8535 207.666C48.4697 207.93 48.5678 208.352 49.1367 208.646C49.5107 208.95 49.9116 208.99 50.3403 208.768C50.748 209.07 51.1621 209.363 51.582 209.648C52.3559 210.085 53.268 210.353 54.0835 210.698C54.6259 210.921 55.165 211.154 55.6997 211.395C55.7158 212.041 56.0053 212.269 56.5678 212.079C57.0761 212.504 57.2192 212.488 57.7124 213.212C58.8296 214.853 59.8208 216.128 61.2319 217.595C67.3652 223.972 69.2495 232.987 66.9301 241.401ZM68.8125 214.285C66.0434 210.577 62.124 206.331 58.602 203.989C56.8169 202.802 54.311 200.67 52.1279 200.042C51.6103 199.894 51.0747 199.884 50.5659 199.728C50.1728 199.607 49.959 199.204 49.5107 199.131C49.1972 199.08 49.1626 199.782 48.8296 199.717C48.1333 199.582 47.6919 198.891 47.2002 198.458C46.144 200.278 45.5708 197.218 44.02 199.275C42.1743 196.381 37.8384 197.014 34.8911 197.16C34.0171 197.203 33.6064 197.514 32.8315 197.745C32.1103 197.959 32.039 197.904 31.2514 197.898C29.29 197.883 27.5488 198.129 25.7358 198.991C22.6899 200.437 19.894 202.692 17.0009 204.436C13.7675 206.384 10.853 208.865 8.37936 211.715C-0.563018 222.02 -2.95413 237.063 4.17624 249.01C15.5019 267.985 44.7163 270.013 61.2705 257.138C74.06 247.19 78.9272 227.827 68.8125 214.285Z" fill="#232323"/>
<path fill-rule="evenodd" clip-rule="evenodd" d="M219.837 5.52207C218.508 5.03575 216.863 4.08604 215.385 4.40977C213.814 4.75352 213.182 6.32677 212.04 7.27257C208.935 9.84434 207.126 6.01133 205.42 3.91074C203.809 1.92735 201.843 1.4459 199.569 2.66465C198.664 3.15049 194.848 5.37657 195.513 6.80284C195.992 7.8292 197.877 6.90782 198.52 6.68369C199.916 6.19785 201.212 5.77256 202.64 6.48106C205.318 7.80919 206.013 11.4513 209.253 12.0191C212.604 12.6065 212.714 9.41807 215.105 8.21787C216.708 7.41367 217.825 8.8375 219.371 8.55381C220.845 8.28379 221.526 6.13926 219.837 5.52207Z" fill="#232323"/>
<path fill-rule="evenodd" clip-rule="evenodd" d="M192.787 18.3723C193.972 18.6296 194.745 16.3312 195.487 15.7482C196.718 14.7819 198.851 14.5871 200.104 15.5598C202.551 17.4582 201.707 21.5568 205.191 22.6252C208.305 23.5803 209.772 19.4792 212.393 18.4582C213.917 17.8644 215.59 17.4758 214.995 15.3454C214.584 13.8722 213.374 13.4938 212.059 14.0598C209.798 15.0314 209.031 18.9899 206.35 19.0607C203.577 19.134 203.277 15.1364 202.086 13.3952C200.271 10.7414 196.54 10.1003 194.42 12.6379C193.78 13.4035 190.53 17.8835 192.787 18.3723Z" fill="#232323"/>
</svg>
