<svg width="48" height="48" viewBox="0 0 48 48" fill="none" xmlns="http://www.w3.org/2000/svg">
<circle cx="24" cy="24" r="23" stroke="#079011" stroke-width="2"/>
<path d="M29 14H19C16.2386 14 14 16.2386 14 19V29C14 31.7614 16.2386 34 19 34H29C31.7614 34 34 31.7614 34 29V19C34 16.2386 31.7614 14 29 14Z" stroke="#079011" stroke-width="2" stroke-linecap="round" stroke-linejoin="round"/>
<path d="M28 23.3701C28.1234 24.2023 27.9813 25.0523 27.5938 25.7991C27.2063 26.5459 26.5932 27.1515 25.8416 27.5297C25.0901 27.908 24.2385 28.0397 23.4078 27.906C22.5771 27.7723 21.8098 27.3801 21.2149 26.7852C20.6199 26.1903 20.2277 25.4229 20.0941 24.5923C19.9604 23.7616 20.0921 22.91 20.4703 22.1584C20.8486 21.4069 21.4542 20.7938 22.201 20.4063C22.9478 20.0188 23.7978 19.8766 24.63 20.0001C25.4789 20.1259 26.2649 20.5215 26.8717 21.1284C27.4785 21.7352 27.8741 22.5211 28 23.3701Z" stroke="#079011" stroke-width="2" stroke-linecap="round" stroke-linejoin="round"/>
<path d="M29.5 18.5H29.51" stroke="#079011" stroke-width="2" stroke-linecap="round" stroke-linejoin="round"/>
</svg>
