<svg width="396" height="581" viewBox="0 0 396 581" fill="none" xmlns="http://www.w3.org/2000/svg">
<path fill-rule="evenodd" clip-rule="evenodd" d="M312.162 35.5935C327.687 46.6415 345.494 54.1887 361.718 64.1385C365.779 66.6289 378.43 71.7997 378.307 76.4191C378.236 79.1201 374.434 82.5069 372.769 84.3787C369.917 87.5854 367.234 90.8256 364.602 94.2178C352.555 109.752 341.21 125.432 328.154 140.186C326.188 142.405 320.266 153.002 318.355 147.739C317.488 145.352 318.202 142.671 315.944 140.446C314.781 139.3 310.289 138.669 311.598 136.211C312.47 136.604 313.343 136.998 314.216 137.39C313.538 135.425 313.588 133.274 312.572 131.417C311.94 130.263 310.707 129.718 310.279 128.419C309.687 126.624 310.69 124.538 310.522 122.688C310.357 120.843 309.402 119.099 308.833 117.359C305.454 107.041 304.242 96.6399 302.512 85.9945C300.801 75.461 298.135 65.2573 297.089 54.6065C295.983 43.3567 294.628 32.1297 292.82 20.97C296.047 21.4236 298.528 24.9363 300.81 26.9221C304.397 30.043 308.292 32.8394 312.162 35.5935ZM299.992 144.507C299.251 143.924 298.672 143.208 298.253 142.36C305.863 138.583 301.271 145.026 299.992 144.507ZM295.365 136.453C292.048 137.369 289.665 137.554 287.108 136.187C286.865 136.058 287.145 135.059 286.707 134.854C286.325 134.676 285.741 134.896 285.414 134.729C284.3 134.161 282.351 135.405 282.161 133.232C286.394 131.934 290.557 129.54 295.026 129.136C301.236 128.576 300.949 134.91 295.365 136.453ZM280.833 123.93C276.308 124.991 272.579 127.467 267.771 126.82C263.258 126.215 259.336 123.87 255.775 121.168C264.682 118.641 274.022 118.186 282.921 115.742C285.819 114.946 289.626 112.849 292.749 113.694C296.218 114.634 296.437 117.889 297.477 120.852C291.925 121.852 286.33 122.643 280.833 123.93ZM252.529 111.36C248.181 112.401 243.737 114.676 240.102 110.749C239.515 110.115 239.002 110.748 239.071 108.796C239.143 106.737 241.009 105.411 242.613 104.686C246.384 102.983 251.671 104.084 255.677 103.833C262.066 103.435 268.57 102.105 274.89 101.08C279.266 100.372 283.786 98.7983 288.258 99.1086C291.711 99.3484 295.877 102.297 290.845 104.448C286.262 106.407 279.39 106.107 274.425 106.955C267.086 108.21 259.772 109.626 252.529 111.36ZM248.282 90.868C248.564 91.1555 248.845 91.4431 249.127 91.7306C249.08 91.7198 250.794 90.3297 251.248 90.2896C253.452 90.0975 255.669 90.2494 257.877 90.1246C262.963 89.8371 268.09 88.9494 273.085 87.9717C277.155 87.1752 281.3 85.8025 285.488 86.1465C289.115 86.4438 289.496 87.1882 289.733 90.6943C280.477 90.6943 270.942 90.499 261.844 92.4621C255.922 93.7393 249.394 97.5438 246.428 90.6857C247.046 90.7464 247.664 90.8072 248.282 90.868ZM254.069 76.0242C256.365 77.7756 262.622 74.863 265.373 74.5722C268.361 74.2554 271.171 73.9266 274.067 73.1811C276.634 72.5191 285.127 69.2137 287.096 72.3748C290.115 77.2178 277.891 78.1066 275.953 78.3464C267.827 79.3523 259.394 80.2443 251.486 82.3799C252.347 80.2617 253.208 78.1435 254.069 76.0242ZM265.217 59.5743C265.811 61.813 284.19 53.5637 284.524 59.5591C284.782 64.1591 266.34 66.4509 263.025 66.0473C263.801 63.929 265.867 62.0322 265.217 59.5743ZM271.388 45.5032C271.779 40.9878 272.383 41.0139 275.998 40.5885C278.754 40.264 282.543 38.645 281.826 43.5673C281.212 47.782 270.995 50.0597 271.388 45.5032ZM277.957 29.967C278.827 27.5428 280.784 30.8058 280.825 32.0386C280.935 35.319 278.452 34.6093 276.063 34.6093C276.728 33.0771 277.36 31.5275 277.957 29.967ZM308.207 11.7701C307.719 11.182 304.983 10.9573 304.204 10.6719C302.289 9.96875 302.561 8.47016 300.111 9.94814C299.989 9.82443 300.222 8.71324 300.088 8.66224C300.021 8.63619 298.304 7.98726 297.747 7.62916C296.4 6.76538 295.187 5.92005 293.95 4.83599C292.635 3.68464 291.318 2.01351 289.816 1.09655C289.182 0.710238 288.664 0.162235 287.901 0.0439529C285.92 -0.26206 286.487 1.12042 284.755 1.39496C283.688 1.56425 282.912 0.31632 281.517 0.854555C280.311 1.319 279.611 3.01292 279.074 4.02103C277.121 7.68993 275.614 11.6388 273.703 15.3468C263.926 34.3076 252.814 52.5491 243.344 71.6868C238.783 80.9063 234.023 90.1897 230.813 99.9876C228.498 107.054 223.271 117.377 227.768 124.438C231.038 129.572 237.586 131.789 242.81 134.27C250.67 138.003 257.917 142.881 265.864 146.5C275.34 150.816 284.543 155.33 293.78 160.15C297.719 162.205 301.274 165.165 305.201 167.112C307.602 168.302 311.311 166.271 312.093 169C315.103 165.347 319.975 167.782 323.457 165.211C325.506 163.698 327.003 160.718 328.711 158.855C331.273 156.062 334.055 153.47 336.67 150.726C347.048 139.826 356.63 128.473 366.072 116.765C375.09 105.585 385.626 95.0219 393.244 82.7836C396.269 77.9253 396.817 72.8306 394.821 67.4634C393.363 63.5482 389.852 57.6362 384.836 60.2287C386.738 57.0644 379.4 53.6852 377.174 53.0667C377.141 53.058 376.702 55.4887 376.081 55.428C376.302 55.4497 374.216 50.0423 373.3 49.3489C370.579 47.2861 367.269 44.8792 364.3 43.1809C361.577 41.6237 358.703 40.8522 356.066 39.1094C352.868 36.9977 349.933 34.4932 346.724 32.3956C343.625 30.3707 340.171 27.9769 336.746 26.5846C333.776 25.3768 331.109 25.1403 328.437 23.1609C325.131 20.7118 322.248 19.0504 318.435 17.363C315.137 15.9034 310.566 14.6284 308.207 11.7701Z" fill="#C7ECCA"/>
<path fill-rule="evenodd" clip-rule="evenodd" d="M250.983 538.766C251.348 537.911 251.711 537.056 252.076 536.201C252.526 537.692 252.652 538.433 250.983 538.766ZM251.468 542.717C250.678 542.858 250.99 540.383 250.99 539.952C252.354 540.723 251.224 541.648 251.468 542.717ZM250.237 535.578C250.91 535.18 251.583 534.784 252.257 534.386C251.319 536.121 251.687 535.037 252.074 536.196C251.367 536.399 250.679 536.162 250.237 535.578ZM246.247 549.139C243.723 558.285 235.708 565.498 227.242 569.234C222.377 571.38 217.594 571.917 212.34 571.678C210.314 571.586 207.93 570.928 205.98 571.05C204.478 571.145 204.546 571.21 203.302 572.479C202.752 571.467 203.151 570.757 202.047 570.168C200.67 569.433 200.098 570.289 199.415 571.307C198.521 570.381 198.155 569.898 196.997 569.348C197.034 569.366 195.888 569.322 195.935 569.337C195.728 569.273 194.483 568.473 194.093 568.327C192.492 567.728 190.642 567.481 189.165 566.621C187.873 565.87 186.81 563.761 185.332 565.381C185.33 562.673 181.678 561.55 179.967 560.132C177.292 557.915 175.165 554.634 173.832 551.459C172.41 548.074 171.935 544.829 171.27 541.341C170.805 538.903 167.761 535.379 169.589 532.92C170.024 533.951 169.82 535.007 170.543 535.943C171.194 534.689 171.552 533.287 171.847 531.916C171.991 531.244 172.829 529.272 172.734 528.687C172.54 527.489 171.056 527.424 171.879 525.955C173.586 527.811 174.964 524.552 173.674 523.254C173.037 523.971 172.803 524.786 172.51 525.674C170.831 522.29 175.477 523.38 174.46 520.324C176.156 519.999 177.13 519.572 177.775 517.899C178.492 516.037 177.964 515.631 179.592 514.4C180.152 513.978 181.736 513.37 182.025 512.674C182.586 511.329 181.159 510.931 182.409 509.671C182.831 510.411 184.475 511.874 185.376 510.481C185.556 510.204 184.799 510.007 185.35 509.367C186.166 508.42 187.078 507.491 188.458 507.69C187.366 504.962 194.347 504.746 196.134 504.102C197.926 503.458 199.447 503.034 201.346 502.885C203.244 502.735 203.339 502.18 204.946 501.038C205.082 502.671 205.475 502.312 206.637 502.6C206.917 502.122 207.203 502.068 207.496 502.439C207.788 502.716 208.144 502.846 208.565 502.831C209.203 502.864 209.927 502.781 210.596 502.794C212.166 502.825 213.785 502.694 215.325 502.727C215.722 502.661 216.093 502.523 216.441 502.313C216.586 502.586 216.732 502.86 216.876 503.134C217.692 503.236 217.755 504.257 218.759 503.14C219.055 504.56 219.908 503.821 220.81 504.206C221.631 504.558 221.762 505.12 222.521 505.512C223.019 505.916 223.554 505.969 224.126 505.673C224.669 506.076 225.221 506.467 225.781 506.846C226.813 507.428 228.029 507.784 229.117 508.244C229.84 508.542 230.559 508.852 231.272 509.174C231.293 510.033 231.679 510.337 232.43 510.084C233.107 510.651 233.298 510.628 233.956 511.593C235.445 513.779 236.767 515.477 238.649 517.43C246.827 525.924 249.34 537.932 246.247 549.139ZM248.757 513.022C245.065 508.084 239.838 502.428 235.142 499.309C232.762 497.727 229.42 494.889 226.509 494.052C225.819 493.854 225.105 493.841 224.426 493.633C223.902 493.472 223.617 492.935 223.019 492.838C222.601 492.77 222.555 493.705 222.111 493.619C221.183 493.438 220.594 492.518 219.938 491.943C218.53 494.366 217.766 490.29 215.698 493.031C213.237 489.176 207.455 490.019 203.525 490.213C202.36 490.271 201.812 490.685 200.779 490.992C199.817 491.277 199.722 491.204 198.672 491.196C196.056 491.176 193.735 491.504 191.317 492.651C187.256 494.578 183.527 497.581 179.67 499.904C175.358 502.499 171.472 505.803 168.173 509.599C156.249 523.325 153.061 543.361 162.569 559.273C177.671 584.547 216.626 587.247 238.7 570.099C255.754 556.849 262.244 531.059 248.757 513.022Z" fill="#C7ECCA"/>
<path fill-rule="evenodd" clip-rule="evenodd" d="M69.5255 397.797C66.2048 396.582 62.0962 394.21 58.4048 395.019C54.4816 395.877 52.9023 399.806 50.0499 402.169C42.295 408.592 37.7779 399.019 33.517 393.772C29.4926 388.819 24.5828 387.616 18.9048 390.66C16.6426 391.873 7.1121 397.433 8.7743 400.995C9.96942 403.559 14.678 401.258 16.2841 400.698C19.7707 399.484 23.0084 398.422 26.5743 400.192C33.2633 403.509 34.9987 412.605 43.0914 414.023C51.4596 415.49 51.734 407.527 57.706 404.53C61.7096 402.521 64.4987 406.077 68.3609 405.369C72.0413 404.694 73.7438 399.338 69.5255 397.797Z" fill="#C7ECCA"/>
<path fill-rule="evenodd" clip-rule="evenodd" d="M1.96543 429.89C4.92519 430.533 6.85693 424.793 8.70936 423.337C11.7825 420.923 17.1105 420.437 20.2398 422.866C26.3508 427.607 24.2447 437.844 32.9459 440.512C40.7227 442.897 44.3861 432.655 50.9325 430.105C54.7386 428.622 58.9166 427.651 57.4312 422.33C56.4056 418.651 53.3837 417.706 50.0983 419.119C44.452 421.546 42.5349 431.433 35.841 431.61C28.9154 431.793 28.1642 421.808 25.191 417.46C20.6581 410.832 11.3399 409.23 6.04473 415.568C4.44596 417.48 -3.67115 428.669 1.96543 429.89Z" fill="#C7ECCA"/>
</svg>
